<svg width="1080" height="1116" viewBox="0 0 1080 1116" fill="none" xmlns="http://www.w3.org/2000/svg">
<rect width="1080" height="1116" fill="#FAFAFA"/>
<mask id="mask0_380_8766" style="mask-type:alpha" maskUnits="userSpaceOnUse" x="0" y="713" width="1081" height="403">
<path d="M0.000244141 713H1080V1116H0.000244141V713Z" fill="url(#paint0_linear_380_8766)"/>
</mask>
<g mask="url(#mask0_380_8766)">
<path d="M350.361 886L357.815 942.241L380.179 942.241L380.179 966.345L454.724 966.345L454.724 1014.55L477.087 1014.55L477.087 966.345L499.45 966.345L499.45 982.414L529.268 982.414L529.268 1014.55L596.359 1014.55L596.359 990.448L626.177 990.448L626.177 1014.55L641.086 1014.55L641.086 934.207L663.449 934.207L670.903 894.034L678.358 934.207L693.267 934.207L693.267 974.379L775.266 974.379L775.266 998.483L819.993 998.483L819.993 966.345L834.902 966.345L834.902 998.483L849.811 998.483L849.811 1038.66L882.665 1038.66L882.669 1028.91C880.4 1029.14 878.13 1029.37 875.861 1029.62C873.509 1029.88 871.294 1028.29 870.215 1025.66L869.949 1024.92L855.818 979.37C855.71 979.044 855.626 978.706 855.562 978.361C854.805 974.34 856.734 970.294 859.869 969.321C896.24 958.155 927.198 952.571 952.743 952.571C978.288 952.571 1009.25 958.155 1045.62 969.321C1045.89 969.407 1046.15 969.514 1046.41 969.645C1049.2 971.073 1050.66 974.962 1049.87 978.596L1049.67 979.37L1035.54 1024.92C1034.59 1027.99 1032.19 1029.9 1029.63 1029.62L1028.05 1029.45L1028.05 1038.66L1079.97 1038.66L1079.97 1119L-1.01848e-05 1119L-4.56558e-06 990.448L119.272 990.448L119.272 1038.66L134.181 1038.66L134.181 974.379L171.453 974.379L171.453 1006.52L216.18 1006.52L216.18 990.448L268.361 990.448L268.361 1038.66L290.725 1038.66L290.725 966.345L320.543 966.345L320.543 942.241L342.906 942.241L350.361 886ZM952.743 1025.41C936.307 1025.41 919.872 1025.99 903.436 1027.14L903.434 1038.66L1007.28 1038.66L1007.28 1027.53C989.101 1026.12 970.922 1025.41 952.743 1025.41Z" fill="url(#paint1_linear_380_8766)" fill-opacity="0.1"/>
<path d="M30.9194 914C49.7537 914 66.4883 918.241 77.0663 924.809C81.8909 923.162 87.2841 922.243 92.9756 922.243C111.41 922.243 123.391 930.884 125.674 942.744C130.425 942.609 136.122 942.851 142.621 942.851C163.184 942.851 167.443 951.055 167.443 959.259C167.443 961.542 167.114 963.189 166.195 964.378L204.378 968.8H26.4837L26.4841 968.704C-3.26953 967.526 -26.9998 955.643 -26.9998 941.324C-26.9998 926.233 -1.06848 914 30.9194 914Z" fill="url(#paint2_linear_380_8766)" fill-opacity="0.7"/>
<path d="M772.98 949C784.211 949 793.939 953.572 798.677 960.24C805.539 955.93 814.523 953.268 824.355 953.268C845.919 953.268 863.4 970.341 863.4 981.011C863.4 985.915 857.704 987.414 851.07 987.414H846.96L699 988.578C708.875 987.879 717.637 981.72 725.287 970.102C726.034 968.391 727.025 966.818 728.217 965.405C728.451 965.086 728.713 964.794 728.998 964.525C733.148 960.161 739.343 957.536 746.265 957.536C747.295 957.536 748.309 957.64 749.302 957.834C754.489 952.496 763.16 949 772.98 949Z" fill="url(#paint3_linear_380_8766)" fill-opacity="0.7"/>
<path d="M914 928.621L943.764 921.59C946.082 915.343 958.166 903.049 972.724 903.049C976.857 903.049 980.79 904.039 984.357 905.601C989.228 899.025 999.096 894.524 1010.48 894.524C1017.51 894.524 1023.97 896.246 1029.03 899.117C1036.05 891.242 1048.6 886 1062.91 886C1084.92 886 1102.76 898.403 1102.76 913.704C1102.76 927.027 1087.64 928.458 1069.2 928.606L1069.2 928.621H914Z" fill="url(#paint4_linear_380_8766)" fill-opacity="0.7"/>
</g>
<defs>
<linearGradient id="paint0_linear_380_8766" x1="540" y1="1116" x2="540.099" y2="718.276" gradientUnits="userSpaceOnUse">
<stop stop-color="#F4F4F4"/>
<stop offset="1" stop-color="#FAFAFA"/>
</linearGradient>
<linearGradient id="paint1_linear_380_8766" x1="610.147" y1="1119" x2="604.731" y2="899.332" gradientUnits="userSpaceOnUse">
<stop stop-color="#EFEFEF" stop-opacity="0"/>
<stop offset="0.582016" stop-color="#888888" stop-opacity="0.44"/>
</linearGradient>
<linearGradient id="paint2_linear_380_8766" x1="88.6892" y1="914" x2="88.6892" y2="968.8" gradientUnits="userSpaceOnUse">
<stop stop-color="white"/>
<stop offset="1" stop-color="white" stop-opacity="0"/>
</linearGradient>
<linearGradient id="paint3_linear_380_8766" x1="781.2" y1="949" x2="781.2" y2="988.578" gradientUnits="userSpaceOnUse">
<stop stop-color="white"/>
<stop offset="1" stop-color="white" stop-opacity="0"/>
</linearGradient>
<linearGradient id="paint4_linear_380_8766" x1="1008.38" y1="886" x2="1008.38" y2="928.621" gradientUnits="userSpaceOnUse">
<stop stop-color="white"/>
<stop offset="1" stop-color="white" stop-opacity="0"/>
</linearGradient>
</defs>
</svg>
