<svg width="1080" height="388" viewBox="0 0 1080 388" fill="none" xmlns="http://www.w3.org/2000/svg">
<g opacity="0.80292">
<mask id="mask0_378_8690" style="mask-type:alpha" maskUnits="userSpaceOnUse" x="0" y="0" width="1080" height="389">
<path d="M1080 -2.57433e-05L0 0L-5.98488e-06 388L1080 388L1080 -2.57433e-05Z" fill="white"/>
</mask>
<g mask="url(#mask0_378_8690)">
<path d="M1080 -2.57433e-05L0 0L-5.98488e-06 388L1080 388L1080 -2.57433e-05Z" fill="#FAF9FB"/>
<g opacity="0.403948">
<path fill-rule="evenodd" clip-rule="evenodd" d="M971.25 198.272L1008.38 176L1045.5 198.272L1008.37 220.543L971.25 198.272Z" fill="url(#paint0_linear_378_8690)"/>
<path fill-rule="evenodd" clip-rule="evenodd" d="M971.25 198.271L1008.37 220.543L1008.37 303.414L971.25 281.142L971.25 198.271Z" fill="url(#paint1_linear_378_8690)"/>
<path fill-rule="evenodd" clip-rule="evenodd" d="M1045.5 198.271L1008.37 220.543L1008.37 303.414L1045.5 281.142L1045.5 198.271Z" fill="url(#paint2_linear_378_8690)"/>
<path fill-rule="evenodd" clip-rule="evenodd" d="M1022.25 229.759L1059.38 207.487L1096.5 229.759L1059.37 252.03L1022.25 229.759Z" fill="url(#paint3_linear_378_8690)"/>
<path fill-rule="evenodd" clip-rule="evenodd" d="M1022.25 229.759L1059.37 252.03L1059.37 334.901L1022.25 312.63L1022.25 229.759Z" fill="url(#paint4_linear_378_8690)"/>
<path fill-rule="evenodd" clip-rule="evenodd" d="M1096.5 229.759L1059.37 252.03L1059.37 334.901L1096.5 312.63L1096.5 229.759Z" fill="url(#paint5_linear_378_8690)"/>
<path fill-rule="evenodd" clip-rule="evenodd" d="M966 266.372L1003.12 244.1L1040.25 266.372L1003.12 288.643L966 266.372Z" fill="url(#paint6_linear_378_8690)"/>
<path fill-rule="evenodd" clip-rule="evenodd" d="M966 266.372L1003.12 288.643L1003.12 371.514L966 349.243L966 266.372Z" fill="url(#paint7_linear_378_8690)"/>
<path fill-rule="evenodd" clip-rule="evenodd" d="M1040.25 266.372L1003.12 288.643L1003.12 371.514L1040.25 349.243L1040.25 266.372Z" fill="url(#paint8_linear_378_8690)"/>
</g>
<g opacity="0.403948">
<path fill-rule="evenodd" clip-rule="evenodd" d="M46 221.821L87.25 198L128.5 221.821L87.25 245.643L46 221.821Z" fill="url(#paint9_linear_378_8690)"/>
<path fill-rule="evenodd" clip-rule="evenodd" d="M46 221.821L87.25 245.643L87.25 334.28L46 310.459L46 221.821Z" fill="url(#paint10_linear_378_8690)"/>
<path fill-rule="evenodd" clip-rule="evenodd" d="M128.5 221.821L87.25 245.643L87.25 334.28L128.5 310.459L128.5 221.821Z" fill="url(#paint11_linear_378_8690)"/>
<path fill-rule="evenodd" clip-rule="evenodd" d="M-23 275.056L18.25 251.234L59.5 275.056L18.25 298.877L-23 275.056Z" fill="url(#paint12_linear_378_8690)"/>
<path fill-rule="evenodd" clip-rule="evenodd" d="M-23 275.056L18.25 298.877L18.25 387.514L-23 363.693L-23 275.056Z" fill="url(#paint13_linear_378_8690)"/>
<path fill-rule="evenodd" clip-rule="evenodd" d="M59.5 275.056L18.25 298.877L18.25 387.514L59.5 363.693L59.5 275.056Z" fill="url(#paint14_linear_378_8690)"/>
</g>
<path d="M18 169C123.486 169 209 83.4864 209 -22C209 -127.486 123.486 -213 18 -213C-87.4864 -213 -173 -127.486 -173 -22C-173 83.4864 -87.4864 169 18 169Z" fill="url(#paint15_linear_378_8690)"/>
<g opacity="0.398972">
<mask id="mask1_378_8690" style="mask-type:alpha" maskUnits="userSpaceOnUse" x="660" y="0" width="60" height="142">
<path d="M720 -3.00845e-06L660 0L660 141.132L720 141.132L720 -3.00845e-06Z" fill="white"/>
</mask>
<g mask="url(#mask1_378_8690)">
<path d="M681.978 15.9418L686.957 15.9418C687.649 15.9418 687.994 16.3331 687.994 17.1158L687.994 22.7511C687.994 23.5337 687.649 23.9251 686.957 23.9251L681.978 23.9251C681.287 23.9251 680.941 23.5337 680.941 22.7511L680.941 17.1158C680.941 16.3331 681.287 15.9418 681.978 15.9418ZM692.166 15.9418L697.145 15.9418C697.837 15.9418 698.183 16.3331 698.183 17.1158L698.183 22.7511C698.183 23.5337 697.837 23.9251 697.145 23.9251L692.166 23.9251C691.475 23.9251 691.129 23.5337 691.129 22.7511L691.129 17.1158C691.129 16.3331 691.475 15.9418 692.166 15.9418ZM692.166 4.4104L697.145 4.4104C697.837 4.4104 698.183 4.80173 698.183 5.58441L698.183 11.2197C698.183 12.0023 697.837 12.3937 697.145 12.3937L692.166 12.3937C691.475 12.3937 691.129 12.0023 691.129 11.2197L691.129 5.58441C691.129 4.80173 691.475 4.4104 692.166 4.4104ZM671.79 27.4732L676.769 27.4732C677.46 27.4732 677.806 27.8645 677.806 28.6472L677.806 34.2825C677.806 35.0652 677.46 35.4565 676.769 35.4565L671.79 35.4565C671.099 35.4565 670.753 35.0652 670.753 34.2825L670.753 28.6472C670.753 27.8645 671.099 27.4732 671.79 27.4732ZM671.79 15.9418L676.769 15.9418C677.46 15.9418 677.806 16.3331 677.806 17.1158L677.806 22.7511C677.806 23.5337 677.46 23.9251 676.769 23.9251L671.79 23.9251C671.099 23.9251 670.753 23.5337 670.753 22.7511L670.753 17.1158C670.753 16.3331 671.099 15.9418 671.79 15.9418ZM681.978 27.4732L686.957 27.4732C687.649 27.4732 687.994 27.8645 687.994 28.6472L687.994 34.2825C687.994 35.0652 687.649 35.4565 686.957 35.4565L681.978 35.4565C681.287 35.4565 680.941 35.0652 680.941 34.2825L680.941 28.6472C680.941 27.8645 681.287 27.4732 681.978 27.4732ZM692.166 27.4732L697.145 27.4732C697.837 27.4732 698.183 27.8645 698.183 28.6472L698.183 34.2825C698.183 35.0652 697.837 35.4565 697.145 35.4565L692.166 35.4565C691.475 35.4565 691.129 35.0652 691.129 34.2825L691.129 28.6472C691.129 27.8645 691.475 27.4732 692.166 27.4732ZM671.79 39.0046L676.769 39.0046C677.46 39.0046 677.806 39.396 677.806 40.1786L677.806 45.8139C677.806 46.5966 677.46 46.9879 676.769 46.9879L671.79 46.9879C671.099 46.9879 670.753 46.5966 670.753 45.8139L670.753 40.1786C670.753 39.396 671.099 39.0046 671.79 39.0046ZM681.978 39.0046L686.957 39.0046C687.649 39.0046 687.994 39.396 687.994 40.1786L687.994 45.8139C687.994 46.5966 687.649 46.9879 686.957 46.9879L681.978 46.9879C681.287 46.9879 680.941 46.5966 680.941 45.8139L680.941 40.1786C680.941 39.396 681.287 39.0046 681.978 39.0046ZM692.166 39.0046L697.145 39.0046C697.837 39.0046 698.183 39.396 698.183 40.1786L698.183 45.8139C698.183 46.5966 697.837 46.9879 697.145 46.9879L692.166 46.9879C691.475 46.9879 691.129 46.5966 691.129 45.8139L691.129 40.1786C691.129 39.396 691.475 39.0046 692.166 39.0046ZM671.79 50.536L676.769 50.536C677.46 50.536 677.806 50.9274 677.806 51.71L677.806 57.3453C677.806 58.128 677.46 58.5193 676.769 58.5193L671.79 58.5193C671.099 58.5193 670.753 58.128 670.753 57.3453L670.753 51.71C670.753 50.9274 671.099 50.536 671.79 50.536ZM681.978 50.536L686.957 50.536C687.649 50.536 687.994 50.9274 687.994 51.71L687.994 57.3453C687.994 58.128 687.649 58.5193 686.957 58.5193L681.978 58.5193C681.287 58.5193 680.941 58.128 680.941 57.3453L680.941 51.71C680.941 50.9274 681.287 50.536 681.978 50.536ZM692.166 50.536L697.145 50.536C697.837 50.536 698.183 50.9274 698.183 51.71L698.183 57.3453C698.183 58.128 697.837 58.5193 697.145 58.5193L692.166 58.5193C691.475 58.5193 691.129 58.128 691.129 57.3453L691.129 51.71C691.129 50.9274 691.475 50.536 692.166 50.536ZM671.79 62.0674L676.769 62.0674C677.46 62.0674 677.806 62.4588 677.806 63.2414L677.806 68.8767C677.806 69.6594 677.46 70.0507 676.769 70.0507L671.79 70.0507C671.099 70.0507 670.753 69.6594 670.753 68.8767L670.753 63.2414C670.753 62.4588 671.099 62.0674 671.79 62.0674ZM681.978 62.0674L686.957 62.0674C687.649 62.0674 687.994 62.4588 687.994 63.2414L687.994 68.8767C687.994 69.6594 687.649 70.0507 686.957 70.0507L681.978 70.0507C681.287 70.0507 680.941 69.6594 680.941 68.8767L680.941 63.2414C680.941 62.4588 681.287 62.0674 681.978 62.0674ZM692.166 62.0674L697.145 62.0674C697.837 62.0674 698.183 62.4588 698.183 63.2414L698.183 68.8767C698.183 69.6594 697.837 70.0507 697.145 70.0507L692.166 70.0507C691.475 70.0507 691.129 69.6594 691.129 68.8767L691.129 63.2414C691.129 62.4588 691.475 62.0674 692.166 62.0674ZM671.79 73.5988L676.769 73.5988C677.46 73.5988 677.806 73.9902 677.806 74.7728L677.806 80.4081C677.806 81.1908 677.46 81.5821 676.769 81.5821L671.79 81.5821C671.099 81.5821 670.753 81.1908 670.753 80.4081L670.753 74.7728C670.753 73.9902 671.099 73.5988 671.79 73.5988ZM681.978 73.5988L686.957 73.5988C687.649 73.5988 687.994 73.9902 687.994 74.7728L687.994 80.4081C687.994 81.1908 687.649 81.5821 686.957 81.5821L681.978 81.5821C681.287 81.5821 680.941 81.1908 680.941 80.4081L680.941 74.7728C680.941 73.9902 681.287 73.5988 681.978 73.5988ZM692.166 73.5988L697.145 73.5988C697.837 73.5988 698.183 73.9902 698.183 74.7728L698.183 80.4081C698.183 81.1908 697.837 81.5821 697.145 81.5821L692.166 81.5821C691.475 81.5821 691.129 81.1908 691.129 80.4081L691.129 74.7728C691.129 73.9902 691.475 73.5988 692.166 73.5988ZM702.355 50.536L707.334 50.536C708.025 50.536 708.371 50.9274 708.371 51.71L708.371 57.3453C708.371 58.128 708.025 58.5193 707.334 58.5193L702.355 58.5193C701.663 58.5193 701.317 58.128 701.317 57.3453L701.317 51.71C701.317 50.9274 701.663 50.536 702.355 50.536ZM712.543 50.536L717.522 50.536C718.213 50.536 718.559 50.9274 718.559 51.71L718.559 57.3453C718.559 58.128 718.213 58.5193 717.522 58.5193L712.543 58.5193C711.851 58.5193 711.506 58.128 711.506 57.3453L711.506 51.71C711.506 50.9274 711.851 50.536 712.543 50.536ZM722.731 50.536L727.71 50.536C728.401 50.536 728.747 50.9274 728.747 51.71L728.747 57.3453C728.747 58.128 728.401 58.5193 727.71 58.5193L722.731 58.5193C722.04 58.5193 721.694 58.128 721.694 57.3453L721.694 51.71C721.694 50.9274 722.04 50.536 722.731 50.536ZM702.355 62.0674L707.334 62.0674C708.025 62.0674 708.371 62.4588 708.371 63.2414L708.371 68.8767C708.371 69.6594 708.025 70.0507 707.334 70.0507L702.355 70.0507C701.663 70.0507 701.317 69.6594 701.317 68.8767L701.317 63.2414C701.317 62.4588 701.663 62.0674 702.355 62.0674ZM712.543 62.0674L717.522 62.0674C718.213 62.0674 718.559 62.4588 718.559 63.2414L718.559 68.8767C718.559 69.6594 718.213 70.0507 717.522 70.0507L712.543 70.0507C711.851 70.0507 711.506 69.6594 711.506 68.8767L711.506 63.2414C711.506 62.4588 711.851 62.0674 712.543 62.0674ZM722.731 62.0674L727.71 62.0674C728.401 62.0674 728.747 62.4588 728.747 63.2414L728.747 68.8767C728.747 69.6594 728.401 70.0507 727.71 70.0507L722.731 70.0507C722.04 70.0507 721.694 69.6594 721.694 68.8767L721.694 63.2414C721.694 62.4588 722.04 62.0674 722.731 62.0674ZM702.355 73.5988L707.334 73.5988C708.025 73.5988 708.371 73.9902 708.371 74.7728L708.371 80.4081C708.371 81.1908 708.025 81.5821 707.334 81.5821L702.355 81.5821C701.663 81.5821 701.317 81.1908 701.317 80.4081L701.317 74.7728C701.317 73.9902 701.663 73.5988 702.355 73.5988ZM712.543 73.5988L717.522 73.5988C718.213 73.5988 718.559 73.9902 718.559 74.7728L718.559 80.4081C718.559 81.1908 718.213 81.5821 717.522 81.5821L712.543 81.5821C711.851 81.5821 711.506 81.1908 711.506 80.4081L711.506 74.7728C711.506 73.9902 711.851 73.5988 712.543 73.5988ZM722.731 73.5988L727.71 73.5988C728.401 73.5988 728.747 73.9902 728.747 74.7728L728.747 80.4081C728.747 81.1908 728.401 81.5821 727.71 81.5821L722.731 81.5821C722.04 81.5821 721.694 81.1908 721.694 80.4081L721.694 74.7728C721.694 73.9902 722.04 73.5988 722.731 73.5988ZM702.355 15.9418L707.334 15.9418C708.025 15.9418 708.371 16.3331 708.371 17.1158L708.371 22.7511C708.371 23.5337 708.025 23.9251 707.334 23.9251L702.355 23.9251C701.663 23.9251 701.317 23.5337 701.317 22.7511L701.317 17.1158C701.317 16.3331 701.663 15.9418 702.355 15.9418ZM702.355 4.4104L707.334 4.4104C708.025 4.4104 708.371 4.80173 708.371 5.58441L708.371 11.2197C708.371 12.0023 708.025 12.3937 707.334 12.3937L702.355 12.3937C701.663 12.3937 701.317 12.0023 701.317 11.2197L701.317 5.58441C701.317 4.80173 701.663 4.4104 702.355 4.4104ZM712.543 15.9418L717.522 15.9418C718.213 15.9418 718.559 16.3331 718.559 17.1158L718.559 22.7511C718.559 23.5337 718.213 23.9251 717.522 23.9251L712.543 23.9251C711.851 23.9251 711.506 23.5337 711.506 22.7511L711.506 17.1158C711.506 16.3331 711.851 15.9418 712.543 15.9418ZM702.355 27.4732L707.334 27.4732C708.025 27.4732 708.371 27.8645 708.371 28.6472L708.371 34.2825C708.371 35.0652 708.025 35.4565 707.334 35.4565L702.355 35.4565C701.663 35.4565 701.317 35.0652 701.317 34.2825L701.317 28.6472C701.317 27.8645 701.663 27.4732 702.355 27.4732ZM712.543 27.4732L717.522 27.4732C718.213 27.4732 718.559 27.8645 718.559 28.6472L718.559 34.2825C718.559 35.0652 718.213 35.4565 717.522 35.4565L712.543 35.4565C711.851 35.4565 711.506 35.0652 711.506 34.2825L711.506 28.6472C711.506 27.8645 711.851 27.4732 712.543 27.4732ZM722.731 27.4732L727.71 27.4732C728.401 27.4732 728.747 27.8645 728.747 28.6472L728.747 34.2825C728.747 35.0652 728.401 35.4565 727.71 35.4565L722.731 35.4565C722.04 35.4565 721.694 35.0652 721.694 34.2825L721.694 28.6472C721.694 27.8645 722.04 27.4732 722.731 27.4732ZM722.731 15.9418L727.71 15.9418C728.401 15.9418 728.747 16.3331 728.747 17.1158L728.747 22.7511C728.747 23.5337 728.401 23.9251 727.71 23.9251L722.731 23.9251C722.04 23.9251 721.694 23.5337 721.694 22.7511L721.694 17.1158C721.694 16.3331 722.04 15.9418 722.731 15.9418ZM732.919 27.4732L737.898 27.4732C738.59 27.4732 738.935 27.8645 738.935 28.6472L738.935 34.2825C738.935 35.0651 738.59 35.4565 737.898 35.4565L732.919 35.4565C732.228 35.4565 731.882 35.0651 731.882 34.2825L731.882 28.6472C731.882 27.8645 732.228 27.4732 732.919 27.4732ZM702.355 39.0046L707.334 39.0046C708.025 39.0046 708.371 39.396 708.371 40.1786L708.371 45.8139C708.371 46.5966 708.025 46.9879 707.334 46.9879L702.355 46.9879C701.663 46.9879 701.317 46.5966 701.317 45.8139L701.317 40.1786C701.317 39.396 701.663 39.0046 702.355 39.0046ZM712.543 39.0046L717.522 39.0046C718.213 39.0046 718.559 39.3959 718.559 40.1786L718.559 45.8139C718.559 46.5966 718.213 46.9879 717.522 46.9879L712.543 46.9879C711.851 46.9879 711.506 46.5966 711.506 45.8139L711.506 40.1786C711.506 39.396 711.851 39.0046 712.543 39.0046ZM722.731 39.0046L727.71 39.0046C728.401 39.0046 728.747 39.3959 728.747 40.1786L728.747 45.8139C728.747 46.5966 728.401 46.9879 727.71 46.9879L722.731 46.9879C722.04 46.9879 721.694 46.5966 721.694 45.8139L721.694 40.1786C721.694 39.3959 722.04 39.0046 722.731 39.0046ZM732.919 39.0046L737.898 39.0046C738.59 39.0046 738.935 39.3959 738.935 40.1786L738.935 45.8139C738.935 46.5966 738.59 46.9879 737.898 46.9879L732.919 46.9879C732.228 46.9879 731.882 46.5966 731.882 45.8139L731.882 40.1786C731.882 39.3959 732.228 39.0046 732.919 39.0046ZM666.581 39.0046L661.602 39.0046C660.91 39.0046 660.565 39.396 660.565 40.1786L660.565 45.8139C660.565 46.5966 660.91 46.9879 661.602 46.9879L666.581 46.9879C667.272 46.9879 667.618 46.5966 667.618 45.8139L667.618 40.1786C667.618 39.396 667.272 39.0046 666.581 39.0046ZM666.581 27.4732L661.602 27.4732C660.91 27.4732 660.565 27.8645 660.565 28.6472L660.565 34.2825C660.565 35.0652 660.91 35.4565 661.602 35.4565L666.581 35.4565C667.272 35.4565 667.618 35.0652 667.618 34.2825L667.618 28.6472C667.618 27.8645 667.272 27.4732 666.581 27.4732ZM666.581 50.536L661.602 50.536C660.91 50.536 660.565 50.9274 660.565 51.71L660.565 57.3453C660.565 58.128 660.91 58.5193 661.602 58.5193L666.581 58.5193C667.272 58.5193 667.618 58.128 667.618 57.3453L667.618 51.71C667.618 50.9274 667.272 50.536 666.581 50.536ZM656.393 50.536L651.414 50.536C650.722 50.536 650.376 50.9274 650.376 51.71L650.376 57.3453C650.376 58.128 650.722 58.5193 651.414 58.5193L656.393 58.5193C657.084 58.5193 657.43 58.128 657.43 57.3453L657.43 51.71C657.43 50.9274 657.084 50.536 656.393 50.536ZM646.204 50.536L641.225 50.536C640.534 50.536 640.188 50.9274 640.188 51.71L640.188 57.3453C640.188 58.128 640.534 58.5193 641.225 58.5193L646.204 58.5193C646.896 58.5193 647.242 58.128 647.242 57.3453L647.242 51.71C647.242 50.9274 646.896 50.536 646.204 50.536ZM656.393 39.0046L651.414 39.0046C650.722 39.0046 650.376 39.396 650.376 40.1786L650.376 45.8139C650.376 46.5966 650.722 46.9879 651.414 46.9879L656.393 46.9879C657.084 46.9879 657.43 46.5966 657.43 45.8139L657.43 40.1786C657.43 39.396 657.084 39.0046 656.393 39.0046ZM666.581 62.0674L661.602 62.0674C660.91 62.0674 660.565 62.4588 660.565 63.2414L660.565 68.8767C660.565 69.6594 660.91 70.0507 661.602 70.0507L666.581 70.0507C667.272 70.0507 667.618 69.6594 667.618 68.8767L667.618 63.2414C667.618 62.4588 667.272 62.0674 666.581 62.0674ZM656.393 62.0674L651.414 62.0674C650.722 62.0674 650.376 62.4588 650.376 63.2414L650.376 68.8767C650.376 69.6594 650.722 70.0507 651.414 70.0507L656.393 70.0507C657.084 70.0507 657.43 69.6594 657.43 68.8767L657.43 63.2414C657.43 62.4588 657.084 62.0674 656.393 62.0674ZM646.204 62.0674L641.225 62.0674C640.534 62.0674 640.188 62.4588 640.188 63.2414L640.188 68.8767C640.188 69.6594 640.534 70.0507 641.225 70.0507L646.204 70.0507C646.896 70.0507 647.242 69.6594 647.242 68.8767L647.242 63.2414C647.242 62.4588 646.896 62.0674 646.204 62.0674ZM666.581 73.5988L661.602 73.5988C660.91 73.5988 660.565 73.9902 660.565 74.7728L660.565 80.4081C660.565 81.1908 660.91 81.5821 661.602 81.5821L666.581 81.5821C667.272 81.5821 667.618 81.1908 667.618 80.4081L667.618 74.7728C667.618 73.9902 667.272 73.5988 666.581 73.5988ZM656.393 73.5988L651.414 73.5988C650.722 73.5988 650.376 73.9902 650.376 74.7728L650.376 80.4081C650.376 81.1908 650.722 81.5821 651.414 81.5821L656.393 81.5821C657.084 81.5821 657.43 81.1908 657.43 80.4081L657.43 74.7728C657.43 73.9902 657.084 73.5988 656.393 73.5988ZM646.204 73.5988L641.225 73.5988C640.534 73.5988 640.188 73.9902 640.188 74.7728L640.188 80.4081C640.188 81.1908 640.534 81.5821 641.225 81.5821L646.204 81.5821C646.896 81.5821 647.242 81.1908 647.242 80.4081L647.242 74.7728C647.242 73.9902 646.896 73.5988 646.204 73.5988ZM636.016 73.5988L631.037 73.5988C630.346 73.5988 630 73.9902 630 74.7728L630 80.4081C630 81.1908 630.346 81.5821 631.037 81.5821L636.016 81.5821C636.708 81.5821 637.053 81.1908 637.053 80.4081L637.053 74.7728C637.053 73.9902 636.708 73.5988 636.016 73.5988ZM666.581 85.1302L661.602 85.1302C660.91 85.1302 660.565 85.5216 660.565 86.3042L660.565 91.9395C660.565 92.7222 660.91 93.1135 661.602 93.1135L666.581 93.1135C667.272 93.1135 667.618 92.7222 667.618 91.9395L667.618 86.3042C667.618 85.5216 667.272 85.1302 666.581 85.1302ZM656.393 85.1302L651.414 85.1302C650.722 85.1302 650.376 85.5216 650.376 86.3042L650.376 91.9395C650.376 92.7222 650.722 93.1135 651.414 93.1135L656.393 93.1135C657.084 93.1135 657.43 92.7222 657.43 91.9395L657.43 86.3042C657.43 85.5216 657.084 85.1302 656.393 85.1302ZM646.204 85.1302L641.225 85.1302C640.534 85.1302 640.188 85.5216 640.188 86.3042L640.188 91.9395C640.188 92.7222 640.534 93.1135 641.225 93.1135L646.204 93.1135C646.896 93.1135 647.242 92.7222 647.242 91.9395L647.242 86.3042C647.242 85.5216 646.896 85.1302 646.204 85.1302ZM636.016 85.1302L631.037 85.1302C630.346 85.1302 630 85.5216 630 86.3042L630 91.9395C630 92.7222 630.346 93.1135 631.037 93.1135L636.016 93.1135C636.708 93.1135 637.053 92.7222 637.053 91.9395L637.053 86.3042C637.053 85.5216 636.708 85.1302 636.016 85.1302ZM666.581 96.6616L661.602 96.6616C660.91 96.6616 660.565 97.053 660.565 97.8357L660.565 103.471C660.565 104.254 660.91 104.645 661.602 104.645L666.581 104.645C667.272 104.645 667.618 104.254 667.618 103.471L667.618 97.8357C667.618 97.053 667.272 96.6616 666.581 96.6616ZM656.393 96.6616L651.414 96.6616C650.722 96.6616 650.376 97.053 650.376 97.8357L650.376 103.471C650.376 104.254 650.722 104.645 651.414 104.645L656.393 104.645C657.084 104.645 657.43 104.254 657.43 103.471L657.43 97.8357C657.43 97.053 657.084 96.6616 656.393 96.6616ZM646.204 96.6616L641.225 96.6616C640.534 96.6616 640.188 97.053 640.188 97.8357L640.188 103.471C640.188 104.254 640.534 104.645 641.225 104.645L646.204 104.645C646.896 104.645 647.242 104.254 647.242 103.471L647.242 97.8357C647.242 97.053 646.896 96.6616 646.204 96.6616ZM646.204 108.193L641.225 108.193C640.534 108.193 640.188 108.584 640.188 109.367L640.188 115.002C640.188 115.785 640.534 116.176 641.225 116.176L646.204 116.176C646.896 116.176 647.242 115.785 647.242 115.002L647.242 109.367C647.242 108.584 646.896 108.193 646.204 108.193ZM666.581 108.193L661.602 108.193C660.91 108.193 660.565 108.584 660.565 109.367L660.565 115.002C660.565 115.785 660.91 116.176 661.602 116.176L666.581 116.176C667.272 116.176 667.618 115.785 667.618 115.002L667.618 109.367C667.618 108.584 667.272 108.193 666.581 108.193ZM656.393 108.193L651.414 108.193C650.722 108.193 650.376 108.584 650.376 109.367L650.376 115.002C650.376 115.785 650.722 116.176 651.414 116.176L656.393 116.176C657.084 116.176 657.43 115.785 657.43 115.002L657.43 109.367C657.43 108.584 657.084 108.193 656.393 108.193ZM656.393 119.724L651.414 119.724C650.722 119.724 650.376 120.116 650.376 120.898L650.376 126.534C650.376 127.316 650.722 127.708 651.414 127.708L656.393 127.708C657.084 127.708 657.43 127.316 657.43 126.534L657.43 120.898C657.43 120.116 657.084 119.724 656.393 119.724ZM666.581 119.724L661.602 119.724C660.91 119.724 660.565 120.116 660.565 120.898L660.565 126.534C660.565 127.316 660.91 127.708 661.602 127.708L666.581 127.708C667.272 127.708 667.618 127.316 667.618 126.534L667.618 120.898C667.618 120.116 667.272 119.724 666.581 119.724ZM666.581 131.256L661.602 131.256C660.91 131.256 660.565 131.647 660.565 132.43L660.565 138.065C660.565 138.848 660.91 139.239 661.602 139.239L666.581 139.239C667.272 139.239 667.618 138.848 667.618 138.065L667.618 132.43C667.618 131.647 667.272 131.256 666.581 131.256ZM732.919 50.536L737.898 50.536C738.59 50.536 738.935 50.9274 738.935 51.71L738.935 57.3453C738.935 58.128 738.59 58.5193 737.898 58.5193L732.919 58.5193C732.228 58.5193 731.882 58.128 731.882 57.3453L731.882 51.71C731.882 50.9274 732.228 50.536 732.919 50.536ZM743.107 50.536L748.086 50.536C748.778 50.536 749.124 50.9274 749.124 51.71L749.124 57.3453C749.124 58.128 748.778 58.5193 748.086 58.5193L743.107 58.5193C742.416 58.5193 742.07 58.128 742.07 57.3453L742.07 51.71C742.07 50.9274 742.416 50.536 743.107 50.536ZM753.296 50.536L758.275 50.536C758.966 50.536 759.312 50.9274 759.312 51.71L759.312 57.3453C759.312 58.128 758.966 58.5193 758.275 58.5193L753.296 58.5193C752.604 58.5193 752.258 58.128 752.258 57.3453L752.258 51.71C752.258 50.9274 752.604 50.536 753.296 50.536ZM743.107 39.0046L748.086 39.0046C748.778 39.0046 749.124 39.3959 749.124 40.1786L749.124 45.8139C749.124 46.5966 748.778 46.9879 748.086 46.9879L743.107 46.9879C742.416 46.9879 742.07 46.5966 742.07 45.8139L742.07 40.1786C742.07 39.3959 742.416 39.0046 743.107 39.0046ZM732.919 62.0674L737.898 62.0674C738.59 62.0674 738.935 62.4588 738.935 63.2414L738.935 68.8767C738.935 69.6594 738.59 70.0507 737.898 70.0507L732.919 70.0507C732.228 70.0507 731.882 69.6594 731.882 68.8767L731.882 63.2414C731.882 62.4588 732.228 62.0674 732.919 62.0674ZM743.107 62.0674L748.086 62.0674C748.778 62.0674 749.124 62.4588 749.124 63.2414L749.124 68.8767C749.124 69.6594 748.778 70.0507 748.086 70.0507L743.107 70.0507C742.416 70.0507 742.07 69.6594 742.07 68.8767L742.07 63.2414C742.07 62.4588 742.416 62.0674 743.107 62.0674ZM753.296 62.0674L758.275 62.0674C758.966 62.0674 759.312 62.4588 759.312 63.2414L759.312 68.8767C759.312 69.6594 758.966 70.0507 758.275 70.0507L753.296 70.0507C752.604 70.0507 752.258 69.6594 752.258 68.8767L752.258 63.2414C752.258 62.4588 752.604 62.0674 753.296 62.0674ZM732.919 73.5988L737.898 73.5988C738.59 73.5988 738.935 73.9902 738.935 74.7728L738.935 80.4081C738.935 81.1908 738.59 81.5821 737.898 81.5821L732.919 81.5821C732.228 81.5821 731.882 81.1908 731.882 80.4081L731.882 74.7728C731.882 73.9902 732.228 73.5988 732.919 73.5988ZM743.107 73.5988L748.086 73.5988C748.778 73.5988 749.124 73.9902 749.124 74.7728L749.124 80.4081C749.124 81.1908 748.778 81.5821 748.086 81.5821L743.107 81.5821C742.416 81.5821 742.07 81.1908 742.07 80.4081L742.07 74.7728C742.07 73.9902 742.416 73.5988 743.107 73.5988ZM753.296 73.5988L758.275 73.5988C758.966 73.5988 759.312 73.9902 759.312 74.7728L759.312 80.4081C759.312 81.1908 758.966 81.5821 758.275 81.5821L753.296 81.5821C752.604 81.5821 752.258 81.1908 752.258 80.4081L752.258 74.7728C752.258 73.9902 752.604 73.5988 753.296 73.5988ZM763.484 73.5988L768.463 73.5988C769.154 73.5988 769.5 73.9902 769.5 74.7728L769.5 80.4081C769.5 81.1908 769.154 81.5821 768.463 81.5821L763.484 81.5821C762.792 81.5821 762.447 81.1908 762.447 80.4081L762.447 74.7728C762.447 73.9902 762.792 73.5988 763.484 73.5988ZM671.79 85.1302L676.769 85.1302C677.46 85.1302 677.806 85.5216 677.806 86.3042L677.806 91.9395C677.806 92.7222 677.46 93.1135 676.769 93.1135L671.79 93.1135C671.099 93.1135 670.753 92.7222 670.753 91.9395L670.753 86.3042C670.753 85.5216 671.099 85.1302 671.79 85.1302ZM681.978 85.1302L686.957 85.1302C687.649 85.1302 687.994 85.5216 687.994 86.3042L687.994 91.9395C687.994 92.7222 687.649 93.1135 686.957 93.1135L681.978 93.1135C681.287 93.1135 680.941 92.7222 680.941 91.9395L680.941 86.3042C680.941 85.5216 681.287 85.1302 681.978 85.1302ZM692.166 85.1302L697.145 85.1302C697.837 85.1302 698.183 85.5216 698.183 86.3042L698.183 91.9395C698.183 92.7222 697.837 93.1135 697.145 93.1135L692.166 93.1135C691.475 93.1135 691.129 92.7222 691.129 91.9395L691.129 86.3042C691.129 85.5216 691.475 85.1302 692.166 85.1302ZM671.79 96.6616L676.769 96.6616C677.46 96.6616 677.806 97.053 677.806 97.8357L677.806 103.471C677.806 104.254 677.46 104.645 676.769 104.645L671.79 104.645C671.099 104.645 670.753 104.254 670.753 103.471L670.753 97.8357C670.753 97.053 671.099 96.6616 671.79 96.6616ZM681.978 96.6616L686.957 96.6616C687.649 96.6616 687.994 97.053 687.994 97.8357L687.994 103.471C687.994 104.254 687.649 104.645 686.957 104.645L681.978 104.645C681.287 104.645 680.941 104.254 680.941 103.471L680.941 97.8357C680.941 97.053 681.287 96.6616 681.978 96.6616ZM692.166 96.6616L697.145 96.6616C697.837 96.6616 698.183 97.053 698.183 97.8357L698.183 103.471C698.183 104.254 697.837 104.645 697.145 104.645L692.166 104.645C691.475 104.645 691.129 104.254 691.129 103.471L691.129 97.8357C691.129 97.053 691.475 96.6616 692.166 96.6616ZM671.79 108.193L676.769 108.193C677.46 108.193 677.806 108.584 677.806 109.367L677.806 115.002C677.806 115.785 677.46 116.176 676.769 116.176L671.79 116.176C671.099 116.176 670.753 115.785 670.753 115.002L670.753 109.367C670.753 108.584 671.099 108.193 671.79 108.193ZM681.978 108.193L686.957 108.193C687.649 108.193 687.994 108.584 687.994 109.367L687.994 115.002C687.994 115.785 687.649 116.176 686.957 116.176L681.978 116.176C681.287 116.176 680.941 115.785 680.941 115.002L680.941 109.367C680.941 108.584 681.287 108.193 681.978 108.193ZM692.166 108.193L697.145 108.193C697.837 108.193 698.183 108.584 698.183 109.367L698.183 115.002C698.183 115.785 697.837 116.176 697.145 116.176L692.166 116.176C691.475 116.176 691.129 115.785 691.129 115.002L691.129 109.367C691.129 108.584 691.475 108.193 692.166 108.193ZM671.79 119.724L676.769 119.724C677.46 119.724 677.806 120.116 677.806 120.898L677.806 126.534C677.806 127.316 677.46 127.708 676.769 127.708L671.79 127.708C671.099 127.708 670.753 127.316 670.753 126.534L670.753 120.898C670.753 120.116 671.099 119.724 671.79 119.724ZM681.978 119.724L686.957 119.724C687.649 119.724 687.994 120.116 687.994 120.898L687.994 126.534C687.994 127.316 687.649 127.708 686.957 127.708L681.978 127.708C681.287 127.708 680.941 127.316 680.941 126.534L680.941 120.898C680.941 120.116 681.287 119.724 681.978 119.724ZM692.166 119.724L697.145 119.724C697.837 119.724 698.183 120.116 698.183 120.898L698.183 126.534C698.183 127.316 697.837 127.708 697.145 127.708L692.166 127.708C691.475 127.708 691.129 127.316 691.129 126.534L691.129 120.898C691.129 120.116 691.475 119.724 692.166 119.724ZM671.79 131.256L676.769 131.256C677.46 131.256 677.806 131.647 677.806 132.43L677.806 138.065C677.806 138.848 677.46 139.239 676.769 139.239L671.79 139.239C671.099 139.239 670.753 138.848 670.753 138.065L670.753 132.43C670.753 131.647 671.099 131.256 671.79 131.256ZM671.79 142.787L676.769 142.787C677.46 142.787 677.806 143.179 677.806 143.961L677.806 149.597C677.806 150.379 677.46 150.771 676.769 150.771L671.79 150.771C671.099 150.771 670.753 150.379 670.753 149.597L670.753 143.961C670.753 143.179 671.099 142.787 671.79 142.787ZM681.978 131.256L686.957 131.256C687.649 131.256 687.994 131.647 687.994 132.43L687.994 138.065C687.994 138.848 687.649 139.239 686.957 139.239L681.978 139.239C681.287 139.239 680.941 138.848 680.941 138.065L680.941 132.43C680.941 131.647 681.287 131.256 681.978 131.256ZM692.166 131.256L697.145 131.256C697.837 131.256 698.183 131.647 698.183 132.43L698.183 138.065C698.183 138.848 697.837 139.239 697.145 139.239L692.166 139.239C691.475 139.239 691.129 138.848 691.129 138.065L691.129 132.43C691.129 131.647 691.475 131.256 692.166 131.256ZM681.978 142.787L686.957 142.787C687.649 142.787 687.994 143.179 687.994 143.961L687.994 149.597C687.994 150.379 687.649 150.771 686.957 150.771L681.978 150.771C681.287 150.771 680.941 150.379 680.941 149.597L680.941 143.961C680.941 143.179 681.287 142.787 681.978 142.787ZM692.166 142.787L697.145 142.787C697.837 142.787 698.183 143.179 698.183 143.961L698.183 149.597C698.183 150.379 697.837 150.771 697.145 150.771L692.166 150.771C691.475 150.771 691.129 150.379 691.129 149.597L691.129 143.961C691.129 143.179 691.475 142.787 692.166 142.787ZM692.166 154.319L697.145 154.319C697.837 154.319 698.183 154.71 698.183 155.493L698.183 161.128C698.183 161.911 697.837 162.302 697.145 162.302L692.166 162.302C691.475 162.302 691.129 161.911 691.129 161.128L691.129 155.493C691.129 154.71 691.475 154.319 692.166 154.319ZM702.355 119.724L707.334 119.724C708.025 119.724 708.371 120.116 708.371 120.898L708.371 126.534C708.371 127.316 708.025 127.708 707.334 127.708L702.355 127.708C701.663 127.708 701.317 127.316 701.317 126.534L701.317 120.898C701.317 120.116 701.663 119.724 702.355 119.724ZM712.543 119.724L717.522 119.724C718.213 119.724 718.559 120.116 718.559 120.898L718.559 126.534C718.559 127.316 718.213 127.708 717.522 127.708L712.543 127.708C711.851 127.708 711.506 127.316 711.506 126.534L711.506 120.898C711.506 120.116 711.851 119.724 712.543 119.724ZM722.731 119.724L727.71 119.724C728.401 119.724 728.747 120.116 728.747 120.898L728.747 126.534C728.747 127.316 728.401 127.708 727.71 127.708L722.731 127.708C722.04 127.708 721.694 127.316 721.694 126.534L721.694 120.898C721.694 120.116 722.04 119.724 722.731 119.724ZM702.355 131.256L707.334 131.256C708.025 131.256 708.371 131.647 708.371 132.43L708.371 138.065C708.371 138.848 708.025 139.239 707.334 139.239L702.355 139.239C701.663 139.239 701.317 138.848 701.317 138.065L701.317 132.43C701.317 131.647 701.663 131.256 702.355 131.256ZM712.543 131.256L717.522 131.256C718.213 131.256 718.559 131.647 718.559 132.43L718.559 138.065C718.559 138.848 718.213 139.239 717.522 139.239L712.543 139.239C711.851 139.239 711.506 138.848 711.506 138.065L711.506 132.43C711.506 131.647 711.851 131.256 712.543 131.256ZM722.731 131.256L727.71 131.256C728.401 131.256 728.747 131.647 728.747 132.43L728.747 138.065C728.747 138.848 728.401 139.239 727.71 139.239L722.731 139.239C722.04 139.239 721.694 138.848 721.694 138.065L721.694 132.43C721.694 131.647 722.04 131.256 722.731 131.256ZM722.731 142.787L727.71 142.787C728.401 142.787 728.747 143.179 728.747 143.961L728.747 149.597C728.747 150.379 728.401 150.771 727.71 150.771L722.731 150.771C722.04 150.771 721.694 150.379 721.694 149.597L721.694 143.961C721.694 143.179 722.04 142.787 722.731 142.787ZM702.355 142.787L707.334 142.787C708.025 142.787 708.371 143.179 708.371 143.961L708.371 149.597C708.371 150.379 708.025 150.771 707.334 150.771L702.355 150.771C701.663 150.771 701.317 150.379 701.317 149.597L701.317 143.961C701.317 143.179 701.663 142.787 702.355 142.787ZM702.355 154.319L707.334 154.319C708.025 154.319 708.371 154.71 708.371 155.493L708.371 161.128C708.371 161.911 708.025 162.302 707.334 162.302L702.355 162.302C701.663 162.302 701.317 161.911 701.317 161.128L701.317 155.493C701.317 154.71 701.663 154.319 702.355 154.319ZM712.543 142.787L717.522 142.787C718.213 142.787 718.559 143.179 718.559 143.961L718.559 149.597C718.559 150.379 718.213 150.771 717.522 150.771L712.543 150.771C711.851 150.771 711.506 150.379 711.506 149.597L711.506 143.961C711.506 143.179 711.851 142.787 712.543 142.787ZM702.355 85.1302L707.334 85.1302C708.025 85.1302 708.371 85.5216 708.371 86.3042L708.371 91.9395C708.371 92.7222 708.025 93.1135 707.334 93.1135L702.355 93.1135C701.663 93.1135 701.317 92.7222 701.317 91.9395L701.317 86.3042C701.317 85.5216 701.663 85.1302 702.355 85.1302ZM712.543 85.1302L717.522 85.1302C718.213 85.1302 718.559 85.5216 718.559 86.3042L718.559 91.9395C718.559 92.7222 718.213 93.1135 717.522 93.1135L712.543 93.1135C711.851 93.1135 711.506 92.7222 711.506 91.9395L711.506 86.3042C711.506 85.5216 711.851 85.1302 712.543 85.1302ZM722.731 85.1302L727.71 85.1302C728.401 85.1302 728.747 85.5216 728.747 86.3042L728.747 91.9395C728.747 92.7222 728.401 93.1135 727.71 93.1135L722.731 93.1135C722.04 93.1135 721.694 92.7222 721.694 91.9395L721.694 86.3042C721.694 85.5216 722.04 85.1302 722.731 85.1302ZM702.355 96.6616L707.334 96.6616C708.025 96.6616 708.371 97.053 708.371 97.8357L708.371 103.471C708.371 104.254 708.025 104.645 707.334 104.645L702.355 104.645C701.663 104.645 701.317 104.254 701.317 103.471L701.317 97.8357C701.317 97.053 701.663 96.6616 702.355 96.6616ZM712.543 96.6616L717.522 96.6616C718.213 96.6616 718.559 97.053 718.559 97.8357L718.559 103.471C718.559 104.254 718.213 104.645 717.522 104.645L712.543 104.645C711.851 104.645 711.506 104.254 711.506 103.471L711.506 97.8357C711.506 97.053 711.851 96.6616 712.543 96.6616ZM722.731 96.6616L727.71 96.6616C728.401 96.6616 728.747 97.053 728.747 97.8357L728.747 103.471C728.747 104.254 728.401 104.645 727.71 104.645L722.731 104.645C722.04 104.645 721.694 104.254 721.694 103.471L721.694 97.8357C721.694 97.053 722.04 96.6616 722.731 96.6616ZM702.355 108.193L707.334 108.193C708.025 108.193 708.371 108.584 708.371 109.367L708.371 115.002C708.371 115.785 708.025 116.176 707.334 116.176L702.355 116.176C701.663 116.176 701.317 115.785 701.317 115.002L701.317 109.367C701.317 108.584 701.663 108.193 702.355 108.193ZM712.543 108.193L717.522 108.193C718.213 108.193 718.559 108.584 718.559 109.367L718.559 115.002C718.559 115.785 718.213 116.176 717.522 116.176L712.543 116.176C711.851 116.176 711.506 115.785 711.506 115.002L711.506 109.367C711.506 108.584 711.851 108.193 712.543 108.193ZM722.731 108.193L727.71 108.193C728.401 108.193 728.747 108.584 728.747 109.367L728.747 115.002C728.747 115.785 728.401 116.176 727.71 116.176L722.731 116.176C722.04 116.176 721.694 115.785 721.694 115.002L721.694 109.367C721.694 108.584 722.04 108.193 722.731 108.193ZM732.919 85.1302L737.898 85.1302C738.59 85.1302 738.935 85.5216 738.935 86.3042L738.935 91.9395C738.935 92.7222 738.59 93.1135 737.898 93.1135L732.919 93.1135C732.228 93.1135 731.882 92.7222 731.882 91.9395L731.882 86.3042C731.882 85.5216 732.228 85.1302 732.919 85.1302ZM743.107 85.1302L748.086 85.1302C748.778 85.1302 749.124 85.5216 749.124 86.3042L749.124 91.9395C749.124 92.7222 748.778 93.1135 748.086 93.1135L743.107 93.1135C742.416 93.1135 742.07 92.7222 742.07 91.9395L742.07 86.3042C742.07 85.5216 742.416 85.1302 743.107 85.1302ZM753.296 85.1302L758.275 85.1302C758.966 85.1302 759.312 85.5216 759.312 86.3042L759.312 91.9395C759.312 92.7222 758.966 93.1135 758.275 93.1135L753.296 93.1135C752.604 93.1135 752.258 92.7222 752.258 91.9395L752.258 86.3042C752.258 85.5216 752.604 85.1302 753.296 85.1302ZM763.484 85.1302L768.463 85.1302C769.154 85.1302 769.5 85.5216 769.5 86.3042L769.5 91.9395C769.5 92.7222 769.154 93.1135 768.463 93.1135L763.484 93.1135C762.792 93.1135 762.447 92.7222 762.447 91.9395L762.447 86.3042C762.447 85.5216 762.792 85.1302 763.484 85.1302ZM732.919 96.6616L737.898 96.6616C738.59 96.6616 738.935 97.053 738.935 97.8356L738.935 103.471C738.935 104.254 738.59 104.645 737.898 104.645L732.919 104.645C732.228 104.645 731.882 104.254 731.882 103.471L731.882 97.8357C731.882 97.053 732.228 96.6616 732.919 96.6616ZM743.107 96.6616L748.086 96.6616C748.778 96.6616 749.124 97.053 749.124 97.8356L749.124 103.471C749.124 104.254 748.778 104.645 748.086 104.645L743.107 104.645C742.416 104.645 742.07 104.254 742.07 103.471L742.07 97.8356C742.07 97.053 742.416 96.6616 743.107 96.6616ZM753.296 96.6616L758.275 96.6616C758.966 96.6616 759.312 97.053 759.312 97.8356L759.312 103.471C759.312 104.254 758.966 104.645 758.275 104.645L753.296 104.645C752.604 104.645 752.258 104.254 752.258 103.471L752.258 97.8356C752.258 97.053 752.604 96.6616 753.296 96.6616ZM732.919 108.193L737.898 108.193C738.59 108.193 738.935 108.584 738.935 109.367L738.935 115.002C738.935 115.785 738.59 116.176 737.898 116.176L732.919 116.176C732.228 116.176 731.882 115.785 731.882 115.002L731.882 109.367C731.882 108.584 732.228 108.193 732.919 108.193ZM743.107 108.193L748.086 108.193C748.778 108.193 749.124 108.584 749.124 109.367L749.124 115.002C749.124 115.785 748.778 116.176 748.086 116.176L743.107 116.176C742.416 116.176 742.07 115.785 742.07 115.002L742.07 109.367C742.07 108.584 742.416 108.193 743.107 108.193ZM753.296 108.193L758.275 108.193C758.966 108.193 759.312 108.584 759.312 109.367L759.312 115.002C759.312 115.785 758.966 116.176 758.275 116.176L753.296 116.176C752.604 116.176 752.258 115.785 752.258 115.002L752.258 109.367C752.258 108.584 752.604 108.193 753.296 108.193ZM743.107 119.724L748.086 119.724C748.778 119.724 749.124 120.116 749.124 120.898L749.124 126.534C749.124 127.316 748.778 127.708 748.086 127.708L743.107 127.708C742.416 127.708 742.07 127.316 742.07 126.534L742.07 120.898C742.07 120.116 742.416 119.724 743.107 119.724ZM732.919 119.724L737.898 119.724C738.59 119.724 738.935 120.116 738.935 120.898L738.935 126.534C738.935 127.316 738.59 127.708 737.898 127.708L732.919 127.708C732.228 127.708 731.882 127.316 731.882 126.534L731.882 120.898C731.882 120.116 732.228 119.724 732.919 119.724ZM732.919 131.256L737.898 131.256C738.59 131.256 738.935 131.647 738.935 132.43L738.935 138.065C738.935 138.848 738.59 139.239 737.898 139.239L732.919 139.239C732.228 139.239 731.882 138.848 731.882 138.065L731.882 132.43C731.882 131.647 732.228 131.256 732.919 131.256Z" fill="url(#paint16_linear_378_8690)"/>
</g>
</g>
<path opacity="0.702218" d="M996.489 85.4884C1033.21 119.23 1086.23 111.573 1114.92 68.3856C1143.61 25.1985 1137.1 -37.1643 1100.38 -70.9057C1063.66 -104.647 1010.64 -96.99 981.947 -53.8029C953.257 -10.6159 959.768 51.747 996.489 85.4884Z" fill="url(#paint17_linear_378_8690)"/>
</g>
</g>
<rect width="1080" height="89" transform="matrix(1 0 0 -1 0 388)" fill="url(#paint18_linear_378_8690)"/>
<defs>
<linearGradient id="paint0_linear_378_8690" x1="1008.38" y1="176" x2="1008.38" y2="220.543" gradientUnits="userSpaceOnUse">
<stop stop-color="#E9E6F2"/>
<stop offset="1" stop-color="#FCF9FF"/>
</linearGradient>
<linearGradient id="paint1_linear_378_8690" x1="989.812" y1="198.271" x2="987.556" y2="289.692" gradientUnits="userSpaceOnUse">
<stop stop-color="#DCD8E7"/>
<stop offset="1" stop-color="#FAF9FB"/>
</linearGradient>
<linearGradient id="paint2_linear_378_8690" x1="1026.94" y1="198.271" x2="1036.55" y2="289.757" gradientUnits="userSpaceOnUse">
<stop stop-color="#ECE6F5"/>
<stop offset="1" stop-color="#FAF9FB"/>
</linearGradient>
<linearGradient id="paint3_linear_378_8690" x1="1059.38" y1="207.487" x2="1059.38" y2="252.03" gradientUnits="userSpaceOnUse">
<stop stop-color="#E9E6F2"/>
<stop offset="1" stop-color="#FCF9FF"/>
</linearGradient>
<linearGradient id="paint4_linear_378_8690" x1="1040.81" y1="229.759" x2="1038.56" y2="321.179" gradientUnits="userSpaceOnUse">
<stop stop-color="#DCD8E7"/>
<stop offset="1" stop-color="#FAF9FB"/>
</linearGradient>
<linearGradient id="paint5_linear_378_8690" x1="1077.94" y1="229.759" x2="1087.55" y2="321.244" gradientUnits="userSpaceOnUse">
<stop stop-color="#ECE6F5"/>
<stop offset="1" stop-color="#FAF9FB"/>
</linearGradient>
<linearGradient id="paint6_linear_378_8690" x1="1003.12" y1="244.1" x2="1003.13" y2="288.643" gradientUnits="userSpaceOnUse">
<stop stop-color="#E9E6F2"/>
<stop offset="1" stop-color="#FCF9FF"/>
</linearGradient>
<linearGradient id="paint7_linear_378_8690" x1="984.562" y1="266.372" x2="982.306" y2="357.792" gradientUnits="userSpaceOnUse">
<stop stop-color="#DCD8E7"/>
<stop offset="1" stop-color="#FAF9FB"/>
</linearGradient>
<linearGradient id="paint8_linear_378_8690" x1="1021.69" y1="266.372" x2="1031.3" y2="357.858" gradientUnits="userSpaceOnUse">
<stop stop-color="#ECE6F5"/>
<stop offset="1" stop-color="#FAF9FB"/>
</linearGradient>
<linearGradient id="paint9_linear_378_8690" x1="87.25" y1="198" x2="87.25" y2="245.643" gradientUnits="userSpaceOnUse">
<stop stop-color="#E9E6F2"/>
<stop offset="1" stop-color="#FCF9FF"/>
</linearGradient>
<linearGradient id="paint10_linear_378_8690" x1="66.625" y1="221.821" x2="64.269" y2="319.606" gradientUnits="userSpaceOnUse">
<stop stop-color="#DED8E7"/>
<stop offset="1" stop-color="#FAF9FB"/>
</linearGradient>
<linearGradient id="paint11_linear_378_8690" x1="107.875" y1="221.821" x2="117.915" y2="319.727" gradientUnits="userSpaceOnUse">
<stop stop-color="#EDE6F5"/>
<stop offset="1" stop-color="#FAF9FB"/>
</linearGradient>
<linearGradient id="paint12_linear_378_8690" x1="18.25" y1="251.234" x2="18.25" y2="298.877" gradientUnits="userSpaceOnUse">
<stop stop-color="#E9E6F2"/>
<stop offset="1" stop-color="#FCF9FF"/>
</linearGradient>
<linearGradient id="paint13_linear_378_8690" x1="-2.375" y1="275.056" x2="-4.73099" y2="372.84" gradientUnits="userSpaceOnUse">
<stop stop-color="#DED8E7"/>
<stop offset="1" stop-color="#FAF9FB"/>
</linearGradient>
<linearGradient id="paint14_linear_378_8690" x1="38.875" y1="275.056" x2="48.9152" y2="372.962" gradientUnits="userSpaceOnUse">
<stop stop-color="#EDE6F5"/>
<stop offset="1" stop-color="#FAF9FB"/>
</linearGradient>
<linearGradient id="paint15_linear_378_8690" x1="51.5" y1="-2.99999" x2="8.00001" y2="134.5" gradientUnits="userSpaceOnUse">
<stop stop-color="#EDE8F8"/>
<stop offset="0.983665" stop-color="#F5F2F9" stop-opacity="0.21"/>
</linearGradient>
<linearGradient id="paint16_linear_378_8690" x1="699.75" y1="4.4104" x2="699.75" y2="162.302" gradientUnits="userSpaceOnUse">
<stop stop-color="#F6F2F9"/>
<stop offset="1" stop-color="#E8E3EC"/>
</linearGradient>
<linearGradient id="paint17_linear_378_8690" x1="1100.38" y1="-70.9057" x2="974.902" y2="65.6529" gradientUnits="userSpaceOnUse">
<stop stop-color="#E5E3EC"/>
<stop offset="1" stop-color="#F5F2F9"/>
</linearGradient>
<linearGradient id="paint18_linear_378_8690" x1="540" y1="55.8722" x2="540" y2="89" gradientUnits="userSpaceOnUse">
<stop stop-color="white"/>
<stop offset="1" stop-color="white" stop-opacity="0"/>
</linearGradient>
</defs>
</svg>
