<svg width="42" height="42" viewBox="0 0 42 42" fill="none" xmlns="http://www.w3.org/2000/svg">
<g opacity="0.703404">
<path d="M20.9999 41C9.95424 41 0.999938 32.0457 0.999939 21C0.999939 9.95431 9.95424 1 20.9999 1C32.0456 1 40.9999 9.9543 40.9999 21C40.9999 32.0457 32.0456 41 20.9999 41Z" stroke="#333333" stroke-width="2"/>
<path d="M15.9625 21.0021C15.9622 21.283 16.071 21.5524 16.2647 21.7509L22.6042 28.2549C23.0087 28.6605 23.656 28.6567 24.0559 28.2464C24.4558 27.836 24.4595 27.1719 24.0642 26.7569L18.4536 21.0004L24.0642 15.2439C24.4595 14.8289 24.4558 14.1648 24.0559 13.7545C23.656 13.3441 23.0087 13.3403 22.6042 13.7459L16.2639 20.2529C16.0703 20.4516 15.9619 20.7212 15.9625 21.0021Z" fill="#333333"/>
</g>
</svg>
