<svg width="42" height="42" viewBox="0 0 42 42" fill="none" xmlns="http://www.w3.org/2000/svg">
<g opacity="0.703404">
<path d="M20.9999 41C32.0456 41 40.9999 32.0457 40.9999 21C40.9999 9.9543 32.0456 0.999999 20.9999 1C9.95418 1 0.999878 9.9543 0.999878 21C0.999877 32.0457 9.95418 41 20.9999 41Z" stroke="#333333" stroke-width="2"/>
<path d="M26.0374 21.0021C26.0376 21.283 25.9288 21.5524 25.7351 21.7509L19.3956 28.2549C18.9912 28.6605 18.3439 28.6567 17.9439 28.2464C17.544 27.836 17.5403 27.1719 17.9357 26.7569L23.5462 21.0004L17.9357 15.2439C17.5403 14.8289 17.544 14.1648 17.9439 13.7545C18.3439 13.3441 18.9912 13.3403 19.3956 13.7459L25.7359 20.2529C25.9295 20.4516 26.038 20.7212 26.0374 21.0021Z" fill="#333333"/>
</g>
</svg>
