<svg width="1080" height="230" viewBox="0 0 1080 230" fill="none" xmlns="http://www.w3.org/2000/svg">
<path d="M350.36 -3.18924e-05L357.815 56.2414L380.178 56.2414L380.178 80.3448L454.723 80.3449L454.723 128.552L477.087 128.552L477.087 80.3449L499.45 80.3448L499.45 96.4138L529.268 96.4138L529.268 128.552L596.358 128.552L596.358 104.448L626.176 104.448L626.176 128.552L641.085 128.552L641.085 48.2069L663.449 48.2069L670.903 8.03446L678.358 48.2069L693.267 48.2069L693.267 88.3794L775.266 88.3794L775.266 112.483L819.993 112.483L819.993 80.3448L834.902 80.3448L834.902 112.483L849.811 112.483L849.811 152.655L882.665 152.655L882.669 142.91C880.399 143.136 878.13 143.374 875.861 143.623C873.509 143.876 871.294 142.291 870.215 139.659L869.949 138.916L855.818 93.3703C855.71 93.0438 855.626 92.7056 855.561 92.3611C854.805 88.3403 856.733 84.2942 859.869 83.3207C896.24 72.1545 927.198 66.5715 952.743 66.5715C978.288 66.5715 1009.25 72.1545 1045.62 83.3207C1045.89 83.407 1046.15 83.5145 1046.41 83.6455C1049.2 85.0727 1050.66 88.9617 1049.87 92.5963L1049.67 93.3702L1035.54 138.916C1034.59 141.987 1032.19 143.899 1029.63 143.623L1028.05 143.455L1028.05 152.655L1079.97 152.655L1079.97 233L-0.000254325 233L-0.000248706 104.448L119.271 104.448L119.271 152.655L134.18 152.655L134.18 88.3794L171.453 88.3794L171.453 120.517L216.18 120.517L216.18 104.448L268.361 104.448L268.361 152.655L290.725 152.655L290.725 80.3449L320.543 80.3449L320.543 56.2414L342.906 56.2414L350.36 -3.18924e-05ZM952.743 139.409C936.307 139.409 919.871 139.986 903.435 141.142L903.433 152.655L1007.28 152.655L1007.28 141.529C989.101 140.115 970.922 139.409 952.743 139.409Z" fill="url(#paint0_linear_269_18114)" fill-opacity="0.1"/>
<defs>
<linearGradient id="paint0_linear_269_18114" x1="610.147" y1="233" x2="604.731" y2="13.3322" gradientUnits="userSpaceOnUse">
<stop stop-color="#EFEFEF" stop-opacity="0"/>
<stop offset="0.582016" stop-color="#888888" stop-opacity="0.44"/>
</linearGradient>
</defs>
</svg>
