<svg width="14" height="12" viewBox="0 0 14 12" fill="none" xmlns="http://www.w3.org/2000/svg">
<path d="M2.58117 7.52051L0.948746 9.15293C0.922344 9.17924 0.903103 9.21187 0.892851 9.24771C0.882599 9.28355 0.881675 9.32141 0.890167 9.35771C0.898658 9.394 0.916284 9.42753 0.941372 9.4551C0.966459 9.48267 0.998176 9.50337 1.03351 9.51524L2.44992 9.98692C2.48161 9.9978 2.5104 10.0158 2.53409 10.0395C2.55779 10.0632 2.57576 10.0919 2.58664 10.1236L3.05968 11.54C3.07139 11.5755 3.09198 11.6073 3.11948 11.6326C3.14698 11.6578 3.18048 11.6756 3.2168 11.6842C3.25311 11.6929 3.29103 11.6921 3.32695 11.6819C3.36286 11.6717 3.39558 11.6526 3.42199 11.6262L5.37433 9.67657C4.22268 9.30115 3.23601 8.53954 2.58117 7.52051ZM13.0511 9.15293L11.4105 7.51231C10.7584 8.53258 9.77424 9.29655 8.62414 9.6752L10.5765 11.6275C10.6029 11.6536 10.6355 11.6725 10.6713 11.6825C10.707 11.6924 10.7447 11.6932 10.7808 11.6845C10.8169 11.6759 10.8502 11.6583 10.8776 11.6332C10.905 11.6082 10.9256 11.5766 10.9374 11.5414L11.4105 10.125C11.4213 10.0933 11.4393 10.0645 11.463 10.0408C11.4867 10.0171 11.5155 9.99916 11.5472 9.98828L12.9636 9.5166C12.9994 9.50517 13.0317 9.48469 13.0573 9.45715C13.0828 9.42962 13.1009 9.39595 13.1097 9.3594C13.1185 9.32285 13.1177 9.28465 13.1075 9.24848C13.0972 9.21232 13.0778 9.17941 13.0511 9.15293ZM11.3722 4.6836C11.3722 3.8183 11.1156 2.97244 10.6349 2.25298C10.1541 1.53351 9.47085 0.972756 8.67142 0.641623C7.872 0.310489 6.99233 0.22385 6.14366 0.39266C5.295 0.56147 4.51545 0.978149 3.90359 1.59C3.29174 2.20186 2.87506 2.98141 2.70625 3.83008C2.53744 4.67874 2.62408 5.55841 2.95521 6.35784C3.28634 7.15726 3.8471 7.84054 4.56656 8.32128C5.28603 8.80201 6.13189 9.0586 6.99718 9.0586C7.57172 9.0586 8.14062 8.94543 8.67142 8.72557C9.20222 8.5057 9.68452 8.18344 10.0908 7.77719C10.497 7.37093 10.8193 6.88864 11.0392 6.35784C11.259 5.82704 11.3722 5.25813 11.3722 4.6836ZM9.53058 4.2625L8.41632 5.35625C8.40062 5.37256 8.38887 5.39226 8.382 5.41384C8.37512 5.43541 8.3733 5.45828 8.37668 5.48067L8.63918 7.02559C8.64515 7.05173 8.64331 7.07905 8.63388 7.10415C8.62445 7.12925 8.60784 7.15102 8.58613 7.16676C8.56442 7.1825 8.53856 7.1915 8.51177 7.19266C8.48498 7.19381 8.45845 7.18706 8.43546 7.17324L7.06828 6.4459C7.04749 6.4339 7.02392 6.42758 6.99992 6.42758C6.97592 6.42758 6.95234 6.4339 6.93156 6.4459L5.56437 7.17324C5.54139 7.18706 5.51485 7.19381 5.48806 7.19266C5.46127 7.1915 5.43541 7.1825 5.4137 7.16676C5.39199 7.15102 5.37539 7.12925 5.36596 7.10415C5.35652 7.07905 5.35468 7.05173 5.36066 7.02559L5.62316 5.48067C5.62745 5.45827 5.62607 5.43515 5.61915 5.41342C5.61222 5.39169 5.59997 5.37204 5.58351 5.35625L4.46925 4.2625C4.44899 4.24479 4.4344 4.2215 4.42731 4.19553C4.42023 4.16956 4.42097 4.14208 4.42943 4.11654C4.4379 4.09099 4.45372 4.06851 4.47491 4.05191C4.4961 4.03531 4.52172 4.02534 4.54855 4.02324L6.08527 3.79766C6.10794 3.79452 6.12945 3.78574 6.14785 3.77212C6.16624 3.75851 6.18092 3.74049 6.19054 3.71973L6.87414 2.31699C6.88464 2.29233 6.90217 2.2713 6.92453 2.25652C6.9469 2.24174 6.97311 2.23386 6.99992 2.23386C7.02673 2.23386 7.05294 2.24174 7.0753 2.25652C7.09767 2.2713 7.11519 2.29233 7.1257 2.31699L7.80929 3.71973C7.81904 3.74067 7.83393 3.7588 7.85258 3.77243C7.87123 3.78605 7.89302 3.79473 7.91593 3.79766L9.45265 4.02324C9.47937 4.02558 9.50481 4.03572 9.52581 4.05241C9.54681 4.0691 9.56243 4.0916 9.57074 4.1171C9.57905 4.1426 9.57967 4.16999 9.57253 4.19584C9.56539 4.22169 9.5508 4.24488 9.53058 4.2625Z" fill="white"/>
</svg>
