<svg width="70" height="66" viewBox="0 0 70 66" fill="none" xmlns="http://www.w3.org/2000/svg">
<g filter="url(#filter0_d_269_18084)">
<path fill-rule="evenodd" clip-rule="evenodd" d="M47.635 4C49.1986 4 50.4661 5.26751 50.4661 6.83107V13.9088C50.4661 15.4723 49.1986 16.7398 47.635 16.7398H10.8311C9.26751 16.7398 8 15.4723 8 13.9088V6.83107C8 5.26751 9.26751 4 10.8311 4H47.635ZM15.0777 8.24661C14.7023 8.24661 14.3422 8.40066 14.0767 8.67488C13.8113 8.94909 13.6621 9.32101 13.6621 9.70881V11.031C13.6621 11.8386 14.2959 12.4932 15.0777 12.4932C15.8595 12.4932 16.4932 11.8386 16.4932 11.031V9.70881C16.4932 8.90126 15.8595 8.24661 15.0777 8.24661ZM20.7398 8.24661C20.3644 8.24661 20.0044 8.40066 19.7389 8.67488C19.4734 8.94909 19.3243 9.32101 19.3243 9.70881V11.031C19.3243 11.8386 19.958 12.4932 20.7398 12.4932C21.5216 12.4932 22.1554 11.8386 22.1554 11.031V9.70881C22.1554 8.90126 21.5216 8.24661 20.7398 8.24661ZM47.635 18.1554C49.1986 18.1554 50.4661 19.4229 50.4661 20.9864V28.0641C50.4661 29.6277 49.1986 30.8952 47.635 30.8952H10.8311C9.26751 30.8952 8 29.6277 8 28.0641V20.9864C8 19.4229 9.26751 18.1554 10.8311 18.1554H47.635ZM15.0777 22.402C14.7023 22.402 14.3422 22.556 14.0767 22.8302C13.8113 23.1045 13.6621 23.4764 13.6621 23.8642V25.1864C13.6621 25.9939 14.2959 26.6486 15.0777 26.6486C15.8595 26.6486 16.4932 25.9939 16.4932 25.1864V23.8642C16.4932 23.0566 15.8595 22.402 15.0777 22.402ZM20.7398 22.402C20.3644 22.402 20.0044 22.556 19.7389 22.8302C19.4734 23.1045 19.3243 23.4764 19.3243 23.8642V25.1864C19.3243 25.9939 19.958 26.6486 20.7398 26.6486C21.5216 26.6486 22.1554 25.9939 22.1554 25.1864V23.8642C22.1554 23.0566 21.5216 22.402 20.7398 22.402ZM10.8311 32.3107H47.635C49.1986 32.3107 50.4661 33.5782 50.4661 35.1418V42.2195C50.4661 43.783 49.1986 45.0505 47.635 45.0505H10.8311C9.26751 45.0505 8 43.783 8 42.2195V35.1418C8 33.5782 9.26751 32.3107 10.8311 32.3107Z" fill="#6524E4"/>
<g filter="url(#filter1_b_269_18084)">
<path d="M41.9729 52.8357C52.5269 52.8357 61.0826 44.28 61.0826 33.7259C61.0826 23.1719 52.5269 14.6162 41.9729 14.6162C31.4189 14.6162 22.8632 23.1719 22.8632 33.7259C22.8632 44.28 31.4189 52.8357 41.9729 52.8357Z" fill="#D6C0F6" fill-opacity="0.2"/>
<path d="M41.9729 52.8357C52.5269 52.8357 61.0826 44.28 61.0826 33.7259C61.0826 23.1719 52.5269 14.6162 41.9729 14.6162C31.4189 14.6162 22.8632 23.1719 22.8632 33.7259C22.8632 44.28 31.4189 52.8357 41.9729 52.8357Z" stroke="url(#paint0_linear_269_18084)" stroke-width="1.5"/>
</g>
<path d="M33.3466 32.3111H50.5991C51.308 32.3111 51.8816 31.7191 51.8816 30.9873C51.8816 30.2555 51.308 29.6635 50.5991 29.6635H36.4603L38.5623 27.494C39.0646 26.9755 39.0646 26.1371 38.5623 25.6223C38.0599 25.1038 37.2477 25.1038 36.7489 25.6223L32.5735 29.9283C32.2636 30.171 32.0641 30.5534 32.0641 30.9873C32.0641 31.7191 32.6377 32.3111 33.3466 32.3111ZM51.5078 35.5288C51.2053 35.2162 50.7852 35.0911 50.3901 35.161H33.3455C32.6372 35.161 32.0641 35.7532 32.0641 36.4852C32.0641 37.2172 32.6372 37.8094 33.3455 37.8094H47.489L45.4067 39.9613C44.9048 40.4799 44.9048 41.3186 45.4067 41.8336C45.6558 42.0911 45.9833 42.2198 46.3144 42.2198C46.6454 42.2198 46.9693 42.0911 47.2221 41.8336L51.5078 37.4048C52.0062 36.8862 52.0062 36.0475 51.5078 35.5288Z" fill="white"/>
</g>
<defs>
<filter id="filter0_d_269_18084" x="0" y="0" width="69.8326" height="65.5859" filterUnits="userSpaceOnUse" color-interpolation-filters="sRGB">
<feFlood flood-opacity="0" result="BackgroundImageFix"/>
<feColorMatrix in="SourceAlpha" type="matrix" values="0 0 0 0 0 0 0 0 0 0 0 0 0 0 0 0 0 0 127 0" result="hardAlpha"/>
<feOffset dy="4"/>
<feGaussianBlur stdDeviation="4"/>
<feColorMatrix type="matrix" values="0 0 0 0 0.305649 0 0 0 0 0 0 0 0 0 0.720675 0 0 0 0.146416 0"/>
<feBlend mode="normal" in2="BackgroundImageFix" result="effect1_dropShadow_269_18084"/>
<feBlend mode="normal" in="SourceGraphic" in2="effect1_dropShadow_269_18084" result="shape"/>
</filter>
<filter id="filter1_b_269_18084" x="14.1132" y="5.86621" width="55.7195" height="55.7197" filterUnits="userSpaceOnUse" color-interpolation-filters="sRGB">
<feFlood flood-opacity="0" result="BackgroundImageFix"/>
<feGaussianBlur in="BackgroundImageFix" stdDeviation="4"/>
<feComposite in2="SourceAlpha" operator="in" result="effect1_backgroundBlur_269_18084"/>
<feBlend mode="normal" in="SourceGraphic" in2="effect1_backgroundBlur_269_18084" result="shape"/>
</filter>
<linearGradient id="paint0_linear_269_18084" x1="35.6983" y1="27.4657" x2="61.0826" y2="52.8357" gradientUnits="userSpaceOnUse">
<stop stop-color="#F8F4FF" stop-opacity="0.696651"/>
<stop offset="1" stop-color="#D3B0FD"/>
</linearGradient>
</defs>
</svg>
