<svg width="120" height="74" viewBox="0 0 120 74" fill="none" xmlns="http://www.w3.org/2000/svg">
<path fill-rule="evenodd" clip-rule="evenodd" d="M120 8V71C120 72.6569 118.657 74 117 74H-3.05176e-05L120 8Z" fill="#6524E4"/>
<path d="M79.3829 50.6966V49.3106H67.3429V50.6966H72.2989V61.0986H73.7829V53.6646C75.0429 54.5606 76.8209 55.9466 77.8149 56.8706L78.5849 55.5266C77.7169 54.7426 75.6169 53.2586 74.3849 52.3906L73.7829 53.3006V50.6966H79.3829ZM93.3182 55.1766V53.6086H80.9422V55.1766H93.3182ZM96.2914 51.9006V57.8786H97.7334V53.2726H103.977V57.8226H105.419V51.9006H101.233C101.387 51.4106 101.513 50.8506 101.639 50.4026H106.497V49.0166H95.1854V50.4026H100.057C99.9594 50.8646 99.8334 51.4106 99.6794 51.9006H96.2914ZM100.155 53.9446C100.155 54.4346 100.169 55.1626 100.127 55.4846C100.015 57.5986 99.3574 58.5786 94.6954 59.8246L95.3534 61.3226C100.435 59.7546 101.443 58.2986 101.555 55.5546C101.569 55.2186 101.569 54.5046 101.569 54.0006L100.155 53.9446ZM101.205 58.5506C102.591 59.1806 104.635 60.3846 106.077 61.3086L106.679 59.7686C105.279 58.9566 103.193 57.8926 101.793 57.2906L101.205 58.5506Z" fill="#FFFEFE"/>
<g filter="url(#filter0_i_217_38129)">
<path d="M120 7.61683C101.754 11.646 84.1019 9.20871 67.045 0.304932C65.7321 -0.3805 64.1122 0.128201 63.4268 1.44102C63.3617 1.56571 63.3065 1.69532 63.2617 1.82867C54.8842 26.8368 33.7971 50.8449 -7.62939e-05 73.8525C19.6814 73.8525 61.413 54.2379 79.4914 43.7687C97.5698 33.2996 120 15.1911 120 7.61683Z" fill="url(#paint0_linear_217_38129)"/>
</g>
<defs>
<filter id="filter0_i_217_38129" x="-7.62939e-05" y="0" width="120" height="76.8525" filterUnits="userSpaceOnUse" color-interpolation-filters="sRGB">
<feFlood flood-opacity="0" result="BackgroundImageFix"/>
<feBlend mode="normal" in="SourceGraphic" in2="BackgroundImageFix" result="shape"/>
<feColorMatrix in="SourceAlpha" type="matrix" values="0 0 0 0 0 0 0 0 0 0 0 0 0 0 0 0 0 0 127 0" result="hardAlpha"/>
<feOffset dy="3"/>
<feGaussianBlur stdDeviation="5.5"/>
<feComposite in2="hardAlpha" operator="arithmetic" k2="-1" k3="1"/>
<feColorMatrix type="matrix" values="0 0 0 0 0.831033 0 0 0 0 0.8025 0 0 0 0 0.891667 0 0 0 0.25 0"/>
<feBlend mode="normal" in2="shape" result="effect1_innerShadow_217_38129"/>
</filter>
<linearGradient id="paint0_linear_217_38129" x1="67.2567" y1="46.0713" x2="59.9999" y2="20.2687" gradientUnits="userSpaceOnUse">
<stop stop-color="#E0D7EF"/>
<stop offset="1" stop-color="#FBF9FF"/>
</linearGradient>
</defs>
</svg>
