<svg width="140" height="61" viewBox="0 0 140 61" fill="none" xmlns="http://www.w3.org/2000/svg">
<g filter="url(#filter0_i_269_17889)">
<path d="M120 20C120 8.95431 111.046 0 100 0H3.05176e-05V61H120V20Z" fill="#6524E4"/>
</g>
<path d="M3.05176e-05 61H140V40C140 28.9543 131.046 20 120 20H3.05176e-05V61Z" fill="#6524E4" fill-opacity="0.2"/>
<path d="M44.32 36.392V30.072H49.968V28.504H44.32V24.168L42.688 24.104V36.392H36.864V37.96H50.944V36.392H44.32ZM66.694 31.752V29.96H52.55V31.752H66.694ZM70.092 28.008V34.84H71.74V29.576H78.876V34.776H80.524V28.008H75.74C75.916 27.448 76.06 26.808 76.204 26.296H81.756V24.712H68.828V26.296H74.396C74.284 26.824 74.14 27.448 73.964 28.008H70.092ZM74.508 30.344C74.508 30.904 74.524 31.736 74.476 32.104C74.348 34.52 73.596 35.64 68.268 37.064L69.02 38.776C74.828 36.984 75.98 35.32 76.108 32.184C76.124 31.8 76.124 30.984 76.124 30.408L74.508 30.344ZM75.708 35.608C77.292 36.328 79.628 37.704 81.276 38.76L81.964 37C80.364 36.072 77.98 34.856 76.38 34.168L75.708 35.608Z" fill="white"/>
<defs>
<filter id="filter0_i_269_17889" x="-9.99997" y="0" width="130" height="71" filterUnits="userSpaceOnUse" color-interpolation-filters="sRGB">
<feFlood flood-opacity="0" result="BackgroundImageFix"/>
<feBlend mode="normal" in="SourceGraphic" in2="BackgroundImageFix" result="shape"/>
<feColorMatrix in="SourceAlpha" type="matrix" values="0 0 0 0 0 0 0 0 0 0 0 0 0 0 0 0 0 0 127 0" result="hardAlpha"/>
<feOffset dx="-10" dy="10"/>
<feGaussianBlur stdDeviation="10"/>
<feComposite in2="hardAlpha" operator="arithmetic" k2="-1" k3="1"/>
<feColorMatrix type="matrix" values="0 0 0 0 1 0 0 0 0 1 0 0 0 0 1 0 0 0 0.25 0"/>
<feBlend mode="normal" in2="shape" result="effect1_innerShadow_269_17889"/>
</filter>
</defs>
</svg>
