<svg width="120" height="74" viewBox="0 0 120 74" fill="none" xmlns="http://www.w3.org/2000/svg">
<path fill-rule="evenodd" clip-rule="evenodd" d="M0 8.00006V71.0001C0 72.6569 1.34315 74.0001 3 74.0001H120L0 8.00006Z" fill="#6524E4"/>
<g filter="url(#filter0_i_355_8643)">
<path d="M6.10352e-05 7.61684C18.2465 11.646 35.8981 9.20871 52.955 0.304939C54.2678 -0.380492 55.8878 0.128209 56.5732 1.44103C56.6383 1.56572 56.6935 1.69533 56.7383 1.82867C65.1158 26.8368 86.2029 50.8449 120 73.8525C100.319 73.8525 58.587 54.2379 40.5086 43.7687C22.4302 33.2996 6.10352e-05 15.1911 6.10352e-05 7.61684Z" fill="url(#paint0_linear_355_8643)"/>
</g>
<path fill-rule="evenodd" clip-rule="evenodd" d="M0 8.00006V71.0001C0 72.6569 1.34315 74.0001 3 74.0001H120L0 8.00006Z" fill="#6524E4"/>
<path d="M18.74 59.2369V53.7069H23.682V52.3349H18.74V48.5409L17.312 48.4849V59.2369H12.216V60.6089H24.536V59.2369H18.74ZM38.3173 55.1769V53.6089H25.9413V55.1769H38.3173ZM41.2905 51.9009V57.8789H42.7325V53.2729H48.9765V57.8229H50.4185V51.9009H46.2325C46.3865 51.4109 46.5125 50.8509 46.6385 50.4029H51.4965V49.0169H40.1845V50.4029H45.0565C44.9585 50.8649 44.8325 51.4109 44.6785 51.9009H41.2905ZM45.1545 53.9449C45.1545 54.4349 45.1685 55.1629 45.1265 55.4849C45.0145 57.5989 44.3565 58.5789 39.6945 59.8249L40.3525 61.3229C45.4345 59.7549 46.4425 58.2989 46.5545 55.5549C46.5685 55.2189 46.5685 54.5049 46.5685 54.0009L45.1545 53.9449ZM46.2045 58.5509C47.5905 59.1809 49.6345 60.3849 51.0765 61.3089L51.6785 59.7689C50.2785 58.9569 48.1925 57.8929 46.7925 57.2909L46.2045 58.5509Z" fill="#FFFEFE"/>
<g filter="url(#filter1_i_355_8643)">
<path d="M6.10352e-05 7.61684C18.2465 11.646 35.8981 9.20871 52.955 0.304939C54.2678 -0.380492 55.8878 0.128209 56.5732 1.44103C56.6383 1.56572 56.6935 1.69533 56.7383 1.82867C65.1158 26.8368 86.2029 50.8449 120 73.8525C100.319 73.8525 58.587 54.2379 40.5086 43.7687C22.4302 33.2996 6.10352e-05 15.1911 6.10352e-05 7.61684Z" fill="url(#paint1_linear_355_8643)"/>
</g>
<defs>
<filter id="filter0_i_355_8643" x="6.10352e-05" y="-7.62939e-05" width="120" height="76.8526" filterUnits="userSpaceOnUse" color-interpolation-filters="sRGB">
<feFlood flood-opacity="0" result="BackgroundImageFix"/>
<feBlend mode="normal" in="SourceGraphic" in2="BackgroundImageFix" result="shape"/>
<feColorMatrix in="SourceAlpha" type="matrix" values="0 0 0 0 0 0 0 0 0 0 0 0 0 0 0 0 0 0 127 0" result="hardAlpha"/>
<feOffset dy="3"/>
<feGaussianBlur stdDeviation="5.5"/>
<feComposite in2="hardAlpha" operator="arithmetic" k2="-1" k3="1"/>
<feColorMatrix type="matrix" values="0 0 0 0 0.831033 0 0 0 0 0.8025 0 0 0 0 0.891667 0 0 0 0.25 0"/>
<feBlend mode="normal" in2="shape" result="effect1_innerShadow_355_8643"/>
</filter>
<filter id="filter1_i_355_8643" x="6.10352e-05" y="-7.62939e-05" width="120" height="76.8526" filterUnits="userSpaceOnUse" color-interpolation-filters="sRGB">
<feFlood flood-opacity="0" result="BackgroundImageFix"/>
<feBlend mode="normal" in="SourceGraphic" in2="BackgroundImageFix" result="shape"/>
<feColorMatrix in="SourceAlpha" type="matrix" values="0 0 0 0 0 0 0 0 0 0 0 0 0 0 0 0 0 0 127 0" result="hardAlpha"/>
<feOffset dy="3"/>
<feGaussianBlur stdDeviation="5.5"/>
<feComposite in2="hardAlpha" operator="arithmetic" k2="-1" k3="1"/>
<feColorMatrix type="matrix" values="0 0 0 0 0.831033 0 0 0 0 0.8025 0 0 0 0 0.891667 0 0 0 0.25 0"/>
<feBlend mode="normal" in2="shape" result="effect1_innerShadow_355_8643"/>
</filter>
<linearGradient id="paint0_linear_355_8643" x1="52.7433" y1="46.0713" x2="60.0001" y2="20.2687" gradientUnits="userSpaceOnUse">
<stop stop-color="#E0D7EF"/>
<stop offset="1" stop-color="#FBF9FF"/>
</linearGradient>
<linearGradient id="paint1_linear_355_8643" x1="52.7433" y1="46.0713" x2="60.0001" y2="20.2687" gradientUnits="userSpaceOnUse">
<stop stop-color="#E0D7EF"/>
<stop offset="1" stop-color="#FBF9FF"/>
</linearGradient>
</defs>
</svg>
