<svg width="67" height="66" viewBox="0 0 67 66" fill="none" xmlns="http://www.w3.org/2000/svg">
<g filter="url(#filter0_d_269_18093)">
<path d="M36.5401 26.5984C39.7435 24.33 41.8279 20.6424 41.8279 16.4764C41.8279 9.5851 36.1287 4 29.0965 4C22.0643 4 16.3651 9.5851 16.3651 16.4764C16.3651 20.6424 18.4495 24.33 21.6529 26.5984V27.3348C13.6883 30.3612 8 36.7831 8 45.9482C8 47.7974 9.9034 49.2972 12.2511 49.2972H45.6292C47.9769 49.2972 49.8804 47.7974 49.8804 45.9482C49.8858 36.9014 44.3457 30.5655 36.5401 27.4531V26.5984Z" fill="#6524E4"/>
<g filter="url(#filter1_b_269_18093)">
<path d="M56.9617 17.5186C57.2843 17.5186 57.5685 17.689 57.7781 17.9367C58.031 18.2356 58.1809 18.6498 58.1809 19.1013V50.4298C58.1809 51.0747 57.9195 51.6586 57.4968 52.0813C57.0741 52.504 56.4902 52.7654 55.8453 52.7654H28.3999C28.0766 52.7654 27.7924 52.5956 27.5831 52.3482C27.3301 52.0491 27.1807 51.6346 27.1807 51.1827V19.1013C27.1807 18.6498 27.3305 18.2356 27.5835 17.9367C27.793 17.689 28.0772 17.5186 28.3999 17.5186H56.9617Z" fill="#D0C0F6" fill-opacity="0.2"/>
<path d="M56.9617 17.5186C57.2843 17.5186 57.5685 17.689 57.7781 17.9367C58.031 18.2356 58.1809 18.6498 58.1809 19.1013V50.4298C58.1809 51.0747 57.9195 51.6586 57.4968 52.0813C57.0741 52.504 56.4902 52.7654 55.8453 52.7654H28.3999C28.0766 52.7654 27.7924 52.5956 27.5831 52.3482C27.3301 52.0491 27.1807 51.6346 27.1807 51.1827V19.1013C27.1807 18.6498 27.3305 18.2356 27.5835 17.9367C27.793 17.689 28.0772 17.5186 28.3999 17.5186H56.9617Z" stroke="url(#paint0_linear_269_18093)" stroke-width="1.5"/>
</g>
<path d="M37.5494 36.3939C34.9154 36.3939 32.772 38.6534 32.772 41.4299C32.772 44.2065 34.9154 46.466 37.5494 46.466C40.1834 46.466 42.3268 44.2065 42.3268 41.4299C42.3268 38.6534 40.1834 36.3939 37.5494 36.3939ZM37.5494 44.2277C36.0865 44.2277 34.8953 42.9732 34.8953 41.4299C34.8953 39.8867 36.0865 38.6321 37.5494 38.6321C39.0124 38.6321 40.2035 39.8867 40.2035 41.4299C40.2035 42.9732 39.0124 44.2277 37.5494 44.2277ZM51.5278 24.9063H45.929C45.3427 24.9063 44.8674 25.4073 44.8674 26.0254C44.8674 26.6435 45.3427 27.1445 45.929 27.1445H51.5278C52.1142 27.1445 52.5895 26.6435 52.5895 26.0254C52.5895 25.4073 52.1142 24.9063 51.5278 24.9063ZM51.5278 37.513H45.929C45.3427 37.513 44.8674 38.0141 44.8674 38.6321C44.8674 39.2502 45.3427 39.7512 45.929 39.7512H51.5278C52.1142 39.7512 52.5895 39.2502 52.5895 38.6321C52.5895 38.0141 52.1142 37.513 51.5278 37.513ZM51.5278 29.3828H45.929C45.3427 29.3828 44.8674 29.8838 44.8674 30.5019C44.8674 31.12 45.3427 31.621 45.929 31.621H51.5278C52.1142 31.621 52.5895 31.12 52.5895 30.5019C52.5895 29.8838 52.1142 29.3828 51.5278 29.3828ZM51.5278 42.2693H45.929C45.3427 42.2693 44.8674 42.7703 44.8674 43.3884C44.8674 44.0065 45.3427 44.5075 45.929 44.5075H51.5278C52.1142 44.5075 52.5895 44.0065 52.5895 43.3884C52.5895 42.7703 52.1142 42.2693 51.5278 42.2693ZM40.9998 24.2001L36.9857 29.3973L34.6288 26.5872C34.2388 26.1313 33.5732 26.0917 33.137 26.4984C32.7008 26.9051 32.6568 27.6063 33.0384 28.07L35.3943 30.8801C35.7969 31.3631 36.3779 31.6389 36.9878 31.6367C37.626 31.639 38.2306 31.3355 38.6312 30.8119L42.6453 25.6124C42.9908 25.1319 42.913 24.4493 42.4695 24.0687C42.026 23.688 41.3761 23.7461 40.9998 24.2001Z" fill="white"/>
</g>
<defs>
<filter id="filter0_d_269_18093" x="0" y="0" width="66.9309" height="65.5156" filterUnits="userSpaceOnUse" color-interpolation-filters="sRGB">
<feFlood flood-opacity="0" result="BackgroundImageFix"/>
<feColorMatrix in="SourceAlpha" type="matrix" values="0 0 0 0 0 0 0 0 0 0 0 0 0 0 0 0 0 0 127 0" result="hardAlpha"/>
<feOffset dy="4"/>
<feGaussianBlur stdDeviation="4"/>
<feColorMatrix type="matrix" values="0 0 0 0 0.305649 0 0 0 0 0 0 0 0 0 0.720675 0 0 0 0.146416 0"/>
<feBlend mode="normal" in2="BackgroundImageFix" result="effect1_dropShadow_269_18093"/>
<feBlend mode="normal" in="SourceGraphic" in2="effect1_dropShadow_269_18093" result="shape"/>
</filter>
<filter id="filter1_b_269_18093" x="18.4307" y="8.76855" width="48.5002" height="52.7471" filterUnits="userSpaceOnUse" color-interpolation-filters="sRGB">
<feFlood flood-opacity="0" result="BackgroundImageFix"/>
<feGaussianBlur in="BackgroundImageFix" stdDeviation="4"/>
<feComposite in2="SourceAlpha" operator="in" result="effect1_backgroundBlur_269_18093"/>
<feBlend mode="normal" in="SourceGraphic" in2="effect1_backgroundBlur_269_18093" result="shape"/>
</filter>
<linearGradient id="paint0_linear_269_18093" x1="38.6981" y1="29.3687" x2="57.4416" y2="50.4229" gradientUnits="userSpaceOnUse">
<stop stop-color="#F8F4FF" stop-opacity="0.696651"/>
<stop offset="1" stop-color="#D2B0FD"/>
</linearGradient>
</defs>
</svg>
