<svg width="65" height="65" viewBox="0 0 65 65" fill="none" xmlns="http://www.w3.org/2000/svg">
<g filter="url(#filter0_d_269_18106)">
<g filter="url(#filter1_d_269_18106)">
<path d="M8 7.76638C8 5.68634 9.67435 4 11.7397 4H41.8712C43.9366 4 45.611 5.68629 45.611 7.76638V33.9161C45.611 35.9961 43.9366 37.6824 41.8712 37.6824H13.3259C11.895 37.6824 10.7781 38.7204 10.7781 39.9423C10.7781 41.1519 11.8727 42.1813 13.2831 42.2018L13.3259 42.2021H45.611C46.3781 42.2021 47 42.8284 47 43.601C47 44.3626 46.3957 44.9821 45.6437 44.9996L45.611 45H13.3259C10.4083 45 8 42.7618 8 39.9423C8 39.8486 8.00265 39.7556 8.00789 39.6633C8.00381 39.6239 8.0013 39.5844 8.00037 39.5448L8 39.5118V7.76638ZM39.0932 23.0473H14.5178L14.485 23.0476C13.733 23.0652 13.1288 23.6846 13.1288 24.4462C13.1288 25.2111 13.7383 25.8326 14.4948 25.845L14.5178 25.8451H39.0932L39.1259 25.8448C39.878 25.8272 40.4822 25.2078 40.4822 24.4462C40.4822 23.6736 39.8603 23.0472 39.0932 23.0472V23.0473ZM39.0932 15.084H14.5178L14.485 15.0844C13.733 15.1019 13.1288 15.7214 13.1288 16.483C13.1288 17.2478 13.7383 17.8693 14.4948 17.8817L14.5178 17.8819H39.0932L39.1259 17.8815C39.878 17.8639 40.4822 17.2445 40.4822 16.483C40.4822 15.7103 39.8603 15.084 39.0932 15.084Z" fill="#6524E4"/>
</g>
<g filter="url(#filter2_b_269_18106)">
<path d="M38.9951 15C29.0685 15 21 22.2827 21 31.2269C21 38.652 26.5452 44.2351 28.6381 46.343L28.7751 46.4759V50.2739C28.7814 50.6405 28.8625 51.0022 29.0138 51.3381C29.1651 51.674 29.3834 51.9774 29.6563 52.2309C29.9292 52.4843 30.2511 52.6827 30.6034 52.8145C30.9558 52.9464 31.3316 53.009 31.709 52.999H46.291C46.6673 53.0078 47.0417 52.9445 47.3929 52.8128C47.744 52.6811 48.065 52.4835 48.3375 52.2313C48.6099 51.9792 48.8286 51.6773 48.9808 51.3431C49.1331 51.0089 49.2161 50.6488 49.2249 50.2834V46.4854L49.3521 46.343C51.445 44.2446 57 38.6615 57 31.2269C56.9902 22.2827 48.9218 15 38.9951 15Z" fill="#D6C0F6" fill-opacity="0.2"/>
<path d="M29.5251 46.4759V46.1587L29.2975 45.9378L29.1655 45.8097C27.0467 43.6756 21.75 38.2997 21.75 31.2269C21.75 22.7678 29.408 15.75 38.9951 15.75C48.5819 15.75 56.2408 22.7677 56.25 31.2278C56.2496 38.3145 50.9357 43.6931 48.8211 45.8133L48.8064 45.828L48.7926 45.8435L48.6654 45.9859L48.4749 46.1993V46.4854V50.2735C48.4675 50.5344 48.4077 50.792 48.2983 51.0321C48.1877 51.2749 48.0283 51.4956 47.828 51.6809C47.6277 51.8663 47.3905 52.0127 47.1295 52.1106C46.8685 52.2085 46.5894 52.2557 46.3085 52.2492L46.2998 52.249H46.291H31.709H31.699L31.689 52.2492C31.4076 52.2567 31.1279 52.21 30.8663 52.1121C30.6047 52.0142 30.3671 51.8674 30.1667 51.6813C29.9664 51.4953 29.8073 51.2737 29.6977 51.0301C29.5888 50.7884 29.5304 50.5291 29.5251 50.2669V46.4759Z" stroke="url(#paint0_linear_269_18106)" stroke-width="1.5"/>
</g>
<path d="M35.0632 34.8947C35.0299 34.918 34.9972 34.944 34.9679 34.9747L31.1919 38.75C30.9379 39.004 30.9339 39.43 31.1939 39.69C31.2553 39.7522 31.3285 39.8016 31.4091 39.8353C31.4897 39.8691 31.5762 39.8867 31.6636 39.8869C31.751 39.8872 31.8377 39.8701 31.9185 39.8368C31.9993 39.8035 32.0727 39.7545 32.1345 39.6927L35.9105 35.9167C35.9397 35.8875 35.9661 35.8555 35.9892 35.8213C37.1803 36.8012 38.6755 37.3358 40.2179 37.3333C43.8999 37.3333 46.8845 34.3487 46.8845 30.6667C46.8845 26.9847 43.8999 24 40.2179 24C36.5359 24 33.5512 26.9847 33.5512 30.6667C33.5512 32.2713 34.1179 33.744 35.0632 34.8947ZM40.2179 36C38.8034 36 37.4468 35.4381 36.4466 34.4379C35.4464 33.4377 34.8845 32.0812 34.8845 30.6667C34.8845 29.2522 35.4464 27.8956 36.4466 26.8954C37.4468 25.8952 38.8034 25.3333 40.2179 25.3333C41.6323 25.3333 42.9889 25.8952 43.9891 26.8954C44.9893 27.8956 45.5512 29.2522 45.5512 30.6667C45.5512 32.0812 44.9893 33.4377 43.9891 34.4379C42.9889 35.4381 41.6323 36 40.2179 36Z" fill="white" stroke="white" stroke-width="1.6"/>
</g>
<defs>
<filter id="filter0_d_269_18106" x="0" y="0" width="65" height="65" filterUnits="userSpaceOnUse" color-interpolation-filters="sRGB">
<feFlood flood-opacity="0" result="BackgroundImageFix"/>
<feColorMatrix in="SourceAlpha" type="matrix" values="0 0 0 0 0 0 0 0 0 0 0 0 0 0 0 0 0 0 127 0" result="hardAlpha"/>
<feOffset dy="4"/>
<feGaussianBlur stdDeviation="4"/>
<feComposite in2="hardAlpha" operator="out"/>
<feColorMatrix type="matrix" values="0 0 0 0 0.396078 0 0 0 0 0.141176 0 0 0 0 0.894118 0 0 0 0.146 0"/>
<feBlend mode="normal" in2="BackgroundImageFix" result="effect1_dropShadow_269_18106"/>
<feBlend mode="normal" in="SourceGraphic" in2="effect1_dropShadow_269_18106" result="shape"/>
</filter>
<filter id="filter1_d_269_18106" x="0" y="0" width="55" height="57" filterUnits="userSpaceOnUse" color-interpolation-filters="sRGB">
<feFlood flood-opacity="0" result="BackgroundImageFix"/>
<feColorMatrix in="SourceAlpha" type="matrix" values="0 0 0 0 0 0 0 0 0 0 0 0 0 0 0 0 0 0 127 0" result="hardAlpha"/>
<feOffset dy="4"/>
<feGaussianBlur stdDeviation="4"/>
<feComposite in2="hardAlpha" operator="out"/>
<feColorMatrix type="matrix" values="0 0 0 0 0.396078 0 0 0 0 0.141176 0 0 0 0 0.894118 0 0 0 0.2 0"/>
<feBlend mode="normal" in2="BackgroundImageFix" result="effect1_dropShadow_269_18106"/>
<feBlend mode="normal" in="SourceGraphic" in2="effect1_dropShadow_269_18106" result="shape"/>
</filter>
<filter id="filter2_b_269_18106" x="13" y="7" width="52" height="54" filterUnits="userSpaceOnUse" color-interpolation-filters="sRGB">
<feFlood flood-opacity="0" result="BackgroundImageFix"/>
<feGaussianBlur in="BackgroundImageFix" stdDeviation="4"/>
<feComposite in2="SourceAlpha" operator="in" result="effect1_backgroundBlur_269_18106"/>
<feBlend mode="normal" in="SourceGraphic" in2="effect1_backgroundBlur_269_18106" result="shape"/>
</filter>
<linearGradient id="paint0_linear_269_18106" x1="33.0898" y1="27.7757" x2="58.2907" y2="51.6368" gradientUnits="userSpaceOnUse">
<stop stop-color="#F8F4FF" stop-opacity="0.696651"/>
<stop offset="1" stop-color="#D3B0FD"/>
</linearGradient>
</defs>
</svg>
