<svg width="74" height="63" viewBox="0 0 74 63" fill="none" xmlns="http://www.w3.org/2000/svg">
<g filter="url(#filter0_d_269_18097)">
<path d="M44.1969 4C47.656 4 50.46 6.79812 50.4661 10.2561V40.21C50.4661 43.668 47.656 46.4661 44.1969 46.4661H14.2692C10.804 46.4661 8 43.6619 8 40.21V10.2561C8 6.79812 10.8101 4 14.2692 4H44.1969ZM39.0545 23.8175H19.4115C18.5822 23.8175 17.9088 24.4534 17.9088 25.233C17.9088 26.0127 18.5822 26.6486 19.4115 26.6486H39.0483C39.8776 26.6486 40.5511 26.0127 40.5573 25.233C40.5573 24.4534 39.8839 23.8175 39.0545 23.8175ZM39.0545 13.9088H19.4115C18.5822 13.9088 17.9088 14.5446 17.9088 15.3243C17.9088 16.1039 18.5822 16.7398 19.4115 16.7398H39.0483C39.8776 16.7398 40.5511 16.1039 40.5573 15.3243C40.5573 14.5446 39.8839 13.9088 39.0545 13.9088Z" fill="#6524E4"/>
<g filter="url(#filter1_b_269_18097)">
<path d="M40.3832 17.168C45.175 17.168 49.7371 19.2629 52.7962 22.8265C59.5386 25.0202 62.5099 27.7202 64.022 31.1727C65.1599 33.771 65.1486 36.316 65.1599 36.5411C65.1562 40.3 63.5915 43.7027 61.068 46.1682C58.5398 48.6382 55.0494 50.168 51.2001 50.168H30.2492C27.1912 50.168 24.4184 48.9529 22.4102 46.9908C20.4034 45.0301 19.1599 42.3231 19.1599 39.3373C19.1599 35.66 21.106 32.225 24.2175 30.2479C25.246 26.1834 27.2878 23.0019 30.1162 20.7433C32.9249 18.5006 36.5094 17.168 40.3832 17.168Z" fill="#D9C0F6" fill-opacity="0.2"/>
<path d="M40.3832 17.168C45.175 17.168 49.7371 19.2629 52.7962 22.8265C59.5386 25.0202 62.5099 27.7202 64.022 31.1727C65.1599 33.771 65.1486 36.316 65.1599 36.5411C65.1562 40.3 63.5915 43.7027 61.068 46.1682C58.5398 48.6382 55.0494 50.168 51.2001 50.168H30.2492C27.1912 50.168 24.4184 48.9529 22.4102 46.9908C20.4034 45.0301 19.1599 42.3231 19.1599 39.3373C19.1599 35.66 21.106 32.225 24.2175 30.2479C25.246 26.1834 27.2878 23.0019 30.1162 20.7433C32.9249 18.5006 36.5094 17.168 40.3832 17.168Z" stroke="url(#paint0_linear_269_18097)" stroke-width="1.5"/>
</g>
<path d="M42.0001 25C42.5155 25 42.9601 25.286 43.1651 25.699L50.6349 33.091C50.868 33.3103 51 33.6143 51 33.9323C51 34.2502 50.868 34.5543 50.6349 34.7735C50.4181 35.0109 50.1068 35.1422 49.7834 35.1328C49.4613 35.1337 49.1531 35.0031 48.9319 34.7718L43.2844 29.1901L43.2857 42.7884C43.2848 43.1112 43.1476 43.4204 42.9045 43.6477C42.6614 43.875 42.3324 44.0017 41.9901 43.9999C41.6491 44.0032 41.3212 43.8763 41.081 43.6481C40.8407 43.42 40.7086 43.1099 40.7145 42.7884L40.7143 29.1154L35.0046 34.7701C34.5268 35.1863 33.8038 35.1639 33.3534 34.7189C32.903 34.2739 32.8803 33.5597 33.3016 33.0876L40.92 25.5546C41.0595 25.3513 41.2618 25.1899 41.501 25.0948C41.5057 25.094 41.5095 25.0924 41.5134 25.0908C41.5435 25.0782 41.5749 25.0674 41.6069 25.0577C41.7224 25.0195 41.8447 25 41.9691 25L41.9819 25.0001C41.988 25 41.994 25 42.0001 25Z" fill="white"/>
</g>
<defs>
<filter id="filter0_d_269_18097" x="0" y="0" width="73.9099" height="62.918" filterUnits="userSpaceOnUse" color-interpolation-filters="sRGB">
<feFlood flood-opacity="0" result="BackgroundImageFix"/>
<feColorMatrix in="SourceAlpha" type="matrix" values="0 0 0 0 0 0 0 0 0 0 0 0 0 0 0 0 0 0 127 0" result="hardAlpha"/>
<feOffset dy="4"/>
<feGaussianBlur stdDeviation="4"/>
<feColorMatrix type="matrix" values="0 0 0 0 0.263127 0 0 0 0 0 0 0 0 0 0.720675 0 0 0 0.146416 0"/>
<feBlend mode="normal" in2="BackgroundImageFix" result="effect1_dropShadow_269_18097"/>
<feBlend mode="normal" in="SourceGraphic" in2="effect1_dropShadow_269_18097" result="shape"/>
</filter>
<filter id="filter1_b_269_18097" x="10.4099" y="8.41797" width="63.5" height="50.5" filterUnits="userSpaceOnUse" color-interpolation-filters="sRGB">
<feFlood flood-opacity="0" result="BackgroundImageFix"/>
<feGaussianBlur in="BackgroundImageFix" stdDeviation="4"/>
<feComposite in2="SourceAlpha" operator="in" result="effect1_backgroundBlur_269_18097"/>
<feBlend mode="normal" in="SourceGraphic" in2="effect1_backgroundBlur_269_18097" result="shape"/>
</filter>
<linearGradient id="paint0_linear_269_18097" x1="34.608" y1="30.7332" x2="59.7636" y2="49.7607" gradientUnits="userSpaceOnUse">
<stop stop-color="#F7F4FF" stop-opacity="0.696651"/>
<stop offset="1" stop-color="#CAB0FD"/>
</linearGradient>
</defs>
</svg>
