<svg width="16" height="12" viewBox="0 0 16 12" fill="none" xmlns="http://www.w3.org/2000/svg">
<path d="M9.26643 11.3509L15.6733 2.65268C15.8536 2.4079 15.9642 2.11576 15.9927 1.80927C16.0211 1.50277 15.9663 1.19413 15.8344 0.918206C15.7025 0.642285 15.4988 0.410082 15.2462 0.247826C14.9937 0.0855711 14.7024 -0.000269126 14.4052 1.0093e-06H1.59348C1.29643 -1.24346e-05 1.00529 0.0860151 0.75292 0.248372C0.500554 0.410729 0.297012 0.64295 0.165271 0.918823C0.0335309 1.1947 -0.0211622 1.50323 0.00736598 1.80961C0.0358942 2.11598 0.146508 2.408 0.32672 2.65268L6.73357 11.3509C6.88228 11.5527 7.07391 11.7163 7.29356 11.8289C7.51321 11.9414 7.75495 12 8 12C8.24505 12 8.48679 11.9414 8.70644 11.8289C8.92609 11.7163 9.11772 11.5527 9.26643 11.3509V11.3509Z" fill="#6524E4"/>
</svg>
