<svg width="27" height="24" viewBox="0 0 27 24" fill="none" xmlns="http://www.w3.org/2000/svg">
<path d="M14.2675 1.00665L15.4163 3.33465C15.5443 3.59545 15.7939 3.77625 16.0803 3.81785L18.6499 4.19065C19.3731 4.29625 19.6627 5.18585 19.1395 5.69625L17.2803 7.50745C17.178 7.60738 17.1014 7.73061 17.0571 7.86658C17.0128 8.00255 17.0021 8.14723 17.0259 8.28825L17.4643 10.8466C17.5875 11.5682 16.8307 12.117 16.1843 11.7762L13.8867 10.5682C13.76 10.502 13.6192 10.4675 13.4763 10.4675C13.3334 10.4675 13.1925 10.502 13.0659 10.5682L10.7683 11.7762C10.1203 12.117 9.36508 11.5666 9.48828 10.8466L9.92668 8.28825C9.97628 8.00185 9.88028 7.71065 9.67228 7.50745L7.81468 5.69625C7.29148 5.18585 7.57948 4.29625 8.30428 4.19065L10.8739 3.81785C11.1619 3.77625 11.4099 3.59545 11.5379 3.33465L12.6867 1.00665C13.0099 0.350648 13.9443 0.350648 14.2675 1.00665ZM0.0786779 18.9458L2.69628 14.4194C2.89308 14.0802 3.36188 14.0306 3.62428 14.3202C4.61308 15.4114 6.96348 17.6722 10.1763 18.6194C10.5283 18.7234 10.6915 19.133 10.5155 19.4562C9.61148 21.1266 8.74588 22.701 8.26588 23.5714C8.07548 23.917 7.60348 23.973 7.33468 23.6834L4.59228 20.7122C4.50908 20.621 4.39868 20.5602 4.27708 20.5362L0.467478 19.8018C0.0786778 19.7266 -0.121322 19.2898 0.0786779 18.9458ZM26.8691 18.9458L24.2515 14.4194C24.0547 14.0802 23.5859 14.0306 23.3235 14.3202C22.3347 15.4114 19.9843 17.6722 16.7715 18.6194C16.4195 18.7234 16.2563 19.133 16.4323 19.4562C17.3363 21.1266 18.2019 22.701 18.6819 23.5714C18.8723 23.917 19.3443 23.973 19.6131 23.6834L22.3555 20.7122C22.4387 20.621 22.5491 20.5602 22.6707 20.5362L26.4803 19.8018C26.8691 19.7266 27.0691 19.2898 26.8691 18.9458Z" fill="#6524E4"/>
</svg>
