<svg width="27" height="28" viewBox="0 0 27 28" fill="none" xmlns="http://www.w3.org/2000/svg">
<path d="M2.77466 10.7024C2.77466 13.5409 3.90223 16.2631 5.90932 18.2701C7.91641 20.2772 10.6386 21.4048 13.4771 21.4048C16.3155 21.4048 19.0377 20.2772 21.0448 18.2701C23.0519 16.2631 24.1795 13.5409 24.1795 10.7024C24.1795 7.86395 23.0519 5.14175 21.0448 3.13466C19.0377 1.12757 16.3155 0 13.4771 0C10.6386 0 7.91641 1.12757 5.90932 3.13466C3.90223 5.14175 2.77466 7.86395 2.77466 10.7024Z" fill="#D9CCFF"/>
<path d="M14.2675 5.00665L15.4163 7.33465C15.5443 7.59545 15.7939 7.77625 16.0803 7.81785L18.6499 8.19065C19.3731 8.29625 19.6627 9.18585 19.1395 9.69625L17.2803 11.5074C17.178 11.6074 17.1014 11.7306 17.0571 11.8666C17.0128 12.0026 17.0021 12.1472 17.0259 12.2882L17.4643 14.8466C17.5875 15.5682 16.8307 16.117 16.1843 15.7762L13.8867 14.5682C13.76 14.502 13.6192 14.4675 13.4763 14.4675C13.3333 14.4675 13.1925 14.502 13.0659 14.5682L10.7683 15.7762C10.1203 16.117 9.36508 15.5666 9.48828 14.8466L9.92668 12.2882C9.97628 12.0018 9.88028 11.7106 9.67228 11.5074L7.81468 9.69625C7.29148 9.18585 7.57948 8.29625 8.30428 8.19065L10.8739 7.81785C11.1619 7.77625 11.4099 7.59545 11.5379 7.33465L12.6867 5.00665C13.0099 4.35065 13.9443 4.35065 14.2675 5.00665V5.00665ZM0.0786779 22.9458L2.69628 18.4194C2.89308 18.0802 3.36188 18.0306 3.62428 18.3202C4.61308 19.4114 6.96348 21.6722 10.1763 22.6194C10.5283 22.7234 10.6915 23.133 10.5155 23.4562C9.61148 25.1266 8.74588 26.701 8.26588 27.5714C8.07548 27.917 7.60348 27.973 7.33468 27.6834L4.59228 24.7122C4.50908 24.621 4.39868 24.5602 4.27708 24.5362L0.467478 23.8018C0.0786778 23.7266 -0.121322 23.2898 0.0786779 22.9458V22.9458ZM26.8691 22.9458L24.2515 18.4194C24.0547 18.0802 23.5859 18.0306 23.3235 18.3202C22.3347 19.4114 19.9843 21.6722 16.7715 22.6194C16.4195 22.7234 16.2563 23.133 16.4323 23.4562C17.3363 25.1266 18.2019 26.701 18.6819 27.5714C18.8723 27.917 19.3443 27.973 19.6131 27.6834L22.3555 24.7122C22.4387 24.621 22.5491 24.5602 22.6707 24.5362L26.4803 23.8018C26.8691 23.7266 27.0691 23.2898 26.8691 22.9458V22.9458Z" fill="#6524E4"/>
</svg>
