<svg width="72" height="65" viewBox="0 0 72 65" fill="none" xmlns="http://www.w3.org/2000/svg">
<g filter="url(#filter0_d_269_18088)">
<path d="M30.4081 4.25453L49.1043 13.528C49.9383 13.9411 50.4661 14.7926 50.4661 15.7249C50.4661 16.6572 49.9383 17.5087 49.1043 17.9218L30.4081 27.1953C29.7243 27.5346 28.9217 27.5346 28.2379 27.1953L9.54166 17.9218C8.70773 17.5087 8.17991 16.6572 8.17991 15.7249C8.17991 14.7926 8.70773 13.9411 9.54166 13.528L28.2379 4.25453C28.9217 3.91516 29.7243 3.91516 30.4081 4.25453ZM48.9233 23.0797C49.7572 23.4927 50.285 24.3443 50.285 25.2765C50.285 26.2088 49.7572 27.0603 48.9233 27.4734L30.2271 36.7469C29.5433 37.0863 28.7406 37.0863 28.0568 36.7469L9.36062 27.4734C8.52731 27.0601 8 26.2089 8 25.2771C8 24.3453 8.52731 23.4941 9.36062 23.0808L12.3444 21.6013L28.0568 29.3942C28.7408 29.7335 29.5432 29.7335 30.2271 29.3942L45.9395 21.6013L48.9233 23.0797ZM48.9233 32.5443C49.7572 32.9574 50.285 33.8089 50.285 34.7412C50.285 35.6735 49.7572 36.525 48.9233 36.938L30.2271 46.2116C29.5433 46.5509 28.7406 46.5509 28.0568 46.2116L9.36062 36.938C8.52731 36.5247 8 35.6736 8 34.7418C8 33.8099 8.52731 32.9588 9.36062 32.5455L12.3444 31.0659L28.0568 38.8588C28.7408 39.1982 29.5432 39.1982 30.2271 38.8588L45.9395 31.0659L48.9233 32.5443Z" fill="#6524E4"/>
<g filter="url(#filter1_b_269_18088)">
<path d="M56.8359 17.4473H29.9407C26.8136 17.4473 24.2786 19.9823 24.2786 23.1094V45.758C24.2786 48.8851 26.8136 51.4201 29.9407 51.4201H56.8359C59.963 51.4201 62.498 48.8851 62.498 45.758V23.1094C62.498 19.9823 59.963 17.4473 56.8359 17.4473Z" fill="#D4C0F6" fill-opacity="0.2"/>
<path d="M56.8359 17.4473H29.9407C26.8136 17.4473 24.2786 19.9823 24.2786 23.1094V45.758C24.2786 48.8851 26.8136 51.4201 29.9407 51.4201H56.8359C59.963 51.4201 62.498 48.8851 62.498 45.758V23.1094C62.498 19.9823 59.963 17.4473 56.8359 17.4473Z" stroke="url(#paint0_linear_269_18088)" stroke-width="1.5"/>
</g>
<path d="M52.985 27.2101L45.0125 35.4363L40.4315 31.2272C39.8511 30.6942 38.9357 30.7169 38.3841 31.2779L32.476 37.3555C31.2736 37.1118 30.0432 37.6289 29.4041 38.6466C28.765 39.6642 28.8555 40.962 29.6302 41.8869C30.4048 42.8117 31.6957 43.1633 32.8533 42.7646C34.0109 42.366 34.7844 41.3035 34.7846 40.1118C34.7846 39.8063 34.7222 39.5191 34.6293 39.2446L39.4854 34.2369L43.9852 38.3699C44.5327 38.8726 45.3858 38.8849 45.9484 38.3981L55.0136 29.0812C55.0759 28.8582 53.7655 27.0345 52.985 27.2101Z" fill="white"/>
<path d="M53.1942 35.3318C52.9427 35.0818 52.806 34.7386 52.8166 34.3836L52.8332 29.1746L47.6376 29.202C46.9368 29.1589 46.3917 28.5783 46.3926 27.876C46.3936 27.1737 46.9403 26.5917 47.6413 26.5466L54.1699 26.5255C54.5247 26.5162 54.8673 26.6528 55.1179 26.9034C55.3684 27.1539 55.505 27.4966 55.4958 27.8513L55.4706 34.3813C55.4788 34.736 55.3413 35.079 55.09 35.3303C54.8388 35.5815 54.4958 35.719 54.1411 35.7108C53.7847 35.7296 53.4386 35.591 53.1942 35.3318Z" fill="white"/>
</g>
<defs>
<filter id="filter0_d_269_18088" x="0" y="0" width="71.248" height="64.1699" filterUnits="userSpaceOnUse" color-interpolation-filters="sRGB">
<feFlood flood-opacity="0" result="BackgroundImageFix"/>
<feColorMatrix in="SourceAlpha" type="matrix" values="0 0 0 0 0 0 0 0 0 0 0 0 0 0 0 0 0 0 127 0" result="hardAlpha"/>
<feOffset dy="4"/>
<feGaussianBlur stdDeviation="4"/>
<feColorMatrix type="matrix" values="0 0 0 0 0.305649 0 0 0 0 0 0 0 0 0 0.720675 0 0 0 0.146416 0"/>
<feBlend mode="normal" in2="BackgroundImageFix" result="effect1_dropShadow_269_18088"/>
<feBlend mode="normal" in="SourceGraphic" in2="effect1_dropShadow_269_18088" result="shape"/>
</filter>
<filter id="filter1_b_269_18088" x="15.5286" y="8.69727" width="55.7195" height="51.4727" filterUnits="userSpaceOnUse" color-interpolation-filters="sRGB">
<feFlood flood-opacity="0" result="BackgroundImageFix"/>
<feGaussianBlur in="BackgroundImageFix" stdDeviation="4"/>
<feComposite in2="SourceAlpha" operator="in" result="effect1_backgroundBlur_269_18088"/>
<feBlend mode="normal" in="SourceGraphic" in2="effect1_backgroundBlur_269_18088" result="shape"/>
</filter>
<linearGradient id="paint0_linear_269_18088" x1="37.1137" y1="29.9976" x2="60.1246" y2="50.6231" gradientUnits="userSpaceOnUse">
<stop stop-color="#F8F4FF" stop-opacity="0.696651"/>
<stop offset="1" stop-color="#CBB0FD"/>
</linearGradient>
</defs>
</svg>
