<svg width="34" height="34" viewBox="0 0 34 34" fill="none" xmlns="http://www.w3.org/2000/svg">
<g opacity="0.9">
<path fill-rule="evenodd" clip-rule="evenodd" d="M17 33C25.8366 33 33 25.8366 33 17C33 8.16344 25.8366 1 17 1C8.16344 1 1 8.16344 1 17C1 25.8366 8.16344 33 17 33ZM25.9085 23.1905C25.9085 21.1064 24.2187 19.417 22.1342 19.417H11.656C9.57149 19.417 7.88164 21.1064 7.88164 23.1905C7.88164 25.2745 9.57149 26.964 11.656 26.964H21.2644H22.1342C24.2187 26.964 25.9085 25.2745 25.9085 23.1905ZM21.9441 12.6105V7.30957H16.6375C14.4734 7.30907 12.526 8.62297 11.7167 10.6296C10.9344 12.5693 11.3672 14.7803 12.8054 16.2809L12.9489 16.4243L12.9667 16.4336C13.5356 16.9809 14.2191 17.395 14.9677 17.6456L14.9739 17.6506C16.5884 18.1814 18.3599 17.9077 19.7391 16.9136C21.1225 15.9164 21.9428 14.3156 21.9441 12.6105Z" fill="white"/>
<path d="M21.9441 7.30957H22.4441V6.80957H21.9441V7.30957ZM21.9441 12.6105L22.4441 12.6109V12.6105H21.9441ZM16.6375 7.30957L16.6374 7.80957H16.6375V7.30957ZM11.7167 10.6296L11.253 10.4426L11.7167 10.6296ZM12.8054 16.2809L12.4443 16.627L12.452 16.6347L12.8054 16.2809ZM12.9489 16.4243L12.5956 16.778L12.6498 16.8322L12.7177 16.8676L12.9489 16.4243ZM12.9667 16.4336L13.3134 16.0733L13.2617 16.0235L13.1979 15.9902L12.9667 16.4336ZM14.9677 17.6456L15.284 17.2583L15.2132 17.2005L15.1265 17.1715L14.9677 17.6456ZM14.9739 17.6506L14.6576 18.0379L14.7295 18.0966L14.8177 18.1256L14.9739 17.6506ZM19.7391 16.9136L20.0314 17.3192L19.7391 16.9136ZM32.5 17C32.5 25.5604 25.5604 32.5 17 32.5V33.5C26.1127 33.5 33.5 26.1127 33.5 17H32.5ZM17 1.5C25.5604 1.5 32.5 8.43959 32.5 17H33.5C33.5 7.8873 26.1127 0.5 17 0.5V1.5ZM1.5 17C1.5 8.43959 8.43959 1.5 17 1.5V0.5C7.8873 0.5 0.5 7.8873 0.5 17H1.5ZM17 32.5C8.43959 32.5 1.5 25.5604 1.5 17H0.5C0.5 26.1127 7.8873 33.5 17 33.5V32.5ZM22.1342 19.917C23.9427 19.917 25.4085 21.3827 25.4085 23.1905H26.4085C26.4085 20.8302 24.4947 18.917 22.1342 18.917V19.917ZM11.656 19.917H22.1342V18.917H11.656V19.917ZM8.38164 23.1905C8.38164 21.3827 9.84752 19.917 11.656 19.917V18.917C9.29546 18.917 7.38164 20.8302 7.38164 23.1905H8.38164ZM11.656 26.464C9.84752 26.464 8.38164 24.9983 8.38164 23.1905H7.38164C7.38164 25.5508 9.29546 27.464 11.656 27.464V26.464ZM21.2644 26.464H11.656V27.464H21.2644V26.464ZM22.1342 26.464H21.2644V27.464H22.1342V26.464ZM25.4085 23.1905C25.4085 24.9983 23.9427 26.464 22.1342 26.464V27.464C24.4947 27.464 26.4085 25.5508 26.4085 23.1905H25.4085ZM21.4441 7.30957V12.6105H22.4441V7.30957H21.4441ZM16.6375 7.80957H21.9441V6.80957H16.6375V7.80957ZM12.1804 10.8166C12.9133 8.99921 14.6772 7.80911 16.6374 7.80957L16.6376 6.80957C14.2696 6.80902 12.1386 8.24674 11.253 10.4426L12.1804 10.8166ZM13.1664 15.9349C11.8639 14.5759 11.4719 12.5734 12.1804 10.8166L11.253 10.4426C10.3969 12.5653 10.8706 14.9848 12.4444 16.6269L13.1664 15.9349ZM13.3022 16.0705L13.1587 15.9271L12.452 16.6347L12.5956 16.778L13.3022 16.0705ZM13.1979 15.9902L13.1801 15.9809L12.7177 16.8676L12.7355 16.8769L13.1979 15.9902ZM15.1265 17.1715C14.4481 16.9444 13.8288 16.5692 13.3134 16.0733L12.62 16.7938C13.2423 17.3927 13.99 17.8456 14.809 18.1197L15.1265 17.1715ZM15.2901 17.2633L15.284 17.2583L14.6515 18.0329L14.6576 18.0379L15.2901 17.2633ZM19.4467 16.508C18.1974 17.4085 16.5926 17.6565 15.13 17.1756L14.8177 18.1256C16.5842 18.7063 18.5224 18.4069 20.0314 17.3192L19.4467 16.508ZM21.4441 12.6101C21.4429 14.1546 20.6999 15.6047 19.4467 16.508L20.0314 17.3192C21.5451 16.2281 22.4427 14.4766 22.4441 12.6109L21.4441 12.6101Z" fill="white"/>
</g>
</svg>
