<svg width="92" height="92" viewBox="0 0 92 92" fill="none" xmlns="http://www.w3.org/2000/svg">
<circle cx="46" cy="46" r="46" fill="#CCEEEA"/>
<circle cx="46" cy="46" r="42" fill="url(#paint0_radial_381_58519)"/>
<path fill-rule="evenodd" clip-rule="evenodd" d="M45.9984 30.5825C43.4671 30.5825 41.415 32.6345 41.415 35.1659V45.9992C41.415 48.5305 43.4671 50.5825 45.9984 50.5825C48.5297 50.5825 50.5817 48.5305 50.5817 45.9992V35.1659C50.5817 32.6345 48.5297 30.5825 45.9984 30.5825ZM38.915 35.1659C38.915 31.2538 42.0864 28.0825 45.9984 28.0825C49.9104 28.0825 53.0817 31.2538 53.0817 35.1659V45.9992C53.0817 49.9112 49.9104 53.0825 45.9984 53.0825C42.0864 53.0825 38.915 49.9112 38.915 45.9992V35.1659Z" fill="white"/>
<path fill-rule="evenodd" clip-rule="evenodd" d="M33.5 43.9175C34.1904 43.9175 34.75 44.4771 34.75 45.1675C34.75 51.3807 39.7868 56.4175 46 56.4175C52.2132 56.4175 57.25 51.3807 57.25 45.1675C57.25 44.4771 57.8096 43.9175 58.5 43.9175C59.1904 43.9175 59.75 44.4771 59.75 45.1675C59.75 52.7614 53.5939 58.9175 46 58.9175C38.4061 58.9175 32.25 52.7614 32.25 45.1675C32.25 44.4771 32.8096 43.9175 33.5 43.9175Z" fill="white"/>
<path fill-rule="evenodd" clip-rule="evenodd" d="M46 56.4175C46.6904 56.4175 47.25 56.9771 47.25 57.6675V62.6675C47.25 63.3578 46.6904 63.9175 46 63.9175C45.3096 63.9175 44.75 63.3578 44.75 62.6675V57.6675C44.75 56.9771 45.3096 56.4175 46 56.4175Z" fill="white"/>
<defs>
<radialGradient id="paint0_radial_381_58519" cx="0" cy="0" r="1" gradientUnits="userSpaceOnUse" gradientTransform="translate(46 46) rotate(90) scale(42)">
<stop stop-color="#9EF0DF"/>
<stop offset="1" stop-color="#208977"/>
</radialGradient>
</defs>
</svg>
