<svg width="50" height="60" viewBox="0 0 50 60" fill="none" xmlns="http://www.w3.org/2000/svg">
<mask id="mask0_1015_26746" style="mask-type:luminance" maskUnits="userSpaceOnUse" x="0" y="0" width="50" height="60">
<path d="M50 0H0V60H50V0Z" fill="white"/>
</mask>
<g mask="url(#mask0_1015_26746)">
<path d="M19.3506 48.1847C19.3506 48.1847 17.5413 57.0948 25.2763 57.4098C33.0565 57.7248 31.5637 58.2198 31.5637 58.2198L25.2763 78.6948L27.2665 79.9998C27.2665 79.9998 42.646 59.3448 40.6557 52.7747C38.6655 46.2497 19.3506 48.1847 19.3506 48.1847Z" fill="#3B4773"/>
<path d="M9.43467 45C9.43467 45 7.2899 56.9974 15.1388 57.3582C22.9878 57.7191 21.4819 58.1701 21.4819 58.1701L15.1388 78.692L17.1467 80C17.1467 80 32.662 59.2977 30.6542 52.7126C29.1939 47.9317 18.607 47.1649 12.8572 47.3905C10.6668 47.4356 9.43467 45 9.43467 45Z" fill="#48568A"/>
<path d="M25.0236 25.9534C25.0236 25.9534 33.5239 29.775 33.969 36.7888C34.414 43.8026 33.969 47.8939 33.969 47.8939C33.969 47.8939 20.8403 48.883 14.7432 47.8939C8.60169 46.9048 8.95773 45.7808 9.35826 39.0817C9.7588 32.3827 15.3663 26.1782 21.2853 25.9534C27.2044 25.6836 25.0236 25.9534 25.0236 25.9534Z" fill="#8FA6F9"/>
<path d="M23.9585 21.6665C22.8931 21.6665 22.0835 22.5998 22.0835 23.7198V25.4465C22.0835 26.6132 22.9357 27.4998 23.9585 27.4998C25.0238 27.4998 25.8335 26.5665 25.8335 25.4465V23.7198C25.8335 22.5532 24.9812 21.6665 23.9585 21.6665Z" fill="#FCD3C2"/>
<path d="M25.5519 14.1665H25.3361C22.6176 14.1665 20.4169 16.4034 20.4169 19.1665C20.4169 21.9297 22.6176 24.1665 25.3361 24.1665H25.5519C28.2704 24.1665 29.6081 22.8507 29.9533 19.1665C30.3417 15.4823 28.2704 14.1665 25.5519 14.1665Z" fill="#FFE6DC"/>
<path d="M29.4254 10.8338C29.4254 10.8338 32.5309 11.4321 32.0285 16.6785C31.5262 21.925 24.2192 14.2854 23.2601 15.482C22.6664 16.1723 22.5294 17.1388 22.8947 17.9672C22.8947 17.9672 20.3829 16.1263 20.2459 17.2768C20.1089 18.4274 20.246 19.3938 21.0224 19.8541C21.7987 20.3143 17.9168 19.9001 17.9168 15.436C17.9168 10.9719 23.5798 9.91334 25.5436 10.0054C26.8223 10.1435 28.1467 10.4196 29.4254 10.8338Z" fill="#7D7D7D"/>
<path d="M17.9168 44.5832C15.6156 44.5832 13.7502 42.2514 13.7502 39.3748C13.7502 36.4984 15.6156 34.1665 17.9168 34.1665C20.218 34.1665 22.0835 36.4984 22.0835 39.3748C22.0835 42.2514 20.218 44.5832 17.9168 44.5832Z" fill="url(#paint0_linear_1015_26746)"/>
<path d="M38.129 33.75H18.9544C18.3679 33.75 17.9167 34.2089 17.9167 34.8056V48.5278C17.9167 49.1244 18.3679 49.5833 18.9544 49.5833H38.129C38.7156 49.5833 39.1667 49.1244 39.1667 48.5278V34.8056C39.1667 34.2548 38.7156 33.75 38.129 33.75Z" fill="#6785EF"/>
<path d="M29.5834 42.9167C28.4328 42.9167 27.5001 41.9839 27.5001 40.8333C27.5001 39.6827 28.4328 38.75 29.5834 38.75C30.734 38.75 31.6667 39.6827 31.6667 40.8333C31.6667 41.9839 30.734 42.9167 29.5834 42.9167Z" fill="#FFEBE3"/>
<path d="M38.9659 47.9165H14.3679C13.7833 47.9165 13.3336 48.4067 13.3336 49.044V49.2891C13.3336 49.9263 13.7833 50.4165 14.3679 50.4165H38.9659C39.5505 50.4165 40.0002 49.9263 40.0002 49.2891V49.044C40.0002 48.4067 39.5505 47.9165 38.9659 47.9165Z" fill="#4B65C4"/>
</g>
<defs>
<linearGradient id="paint0_linear_1015_26746" x1="-206.092" y1="195.981" x2="-767.653" y2="654.588" gradientUnits="userSpaceOnUse">
<stop stop-color="#7A93EF"/>
<stop offset="1" stop-color="#7992EE"/>
</linearGradient>
</defs>
</svg>
