<svg width="50" height="60" viewBox="0 0 50 60" fill="none" xmlns="http://www.w3.org/2000/svg">
<mask id="mask0_1015_26716" style="mask-type:luminance" maskUnits="userSpaceOnUse" x="0" y="0" width="50" height="60">
<path d="M50 0H0V60H50V0Z" fill="white"/>
</mask>
<g mask="url(#mask0_1015_26716)">
<path d="M38.8937 33.3335C39.0184 33.7625 41.0137 44.1206 37.5845 53.7432C37.0232 53.8657 37.0856 52.3335 37.0856 52.3335L37.7091 39.156L37.3973 34.1916L38.8937 33.3335Z" fill="#FBD6C6"/>
<path d="M29.5503 71.6667H35.1712C35.1712 71.6667 37.0835 50.4358 37.0835 50C36.7358 50.3736 36.7937 50.498 35.3451 50.9338C34.4758 51.93 28.3335 68.4913 28.3335 68.4913L29.5503 71.6667Z" fill="#4D7ADF"/>
<path d="M32.6482 25.5306C29.7791 26.3708 32.0446 35.3399 33.1067 36.0914C34.169 36.843 39.1482 34.7279 39.5498 33.7765C39.9514 32.8252 36.7103 24.3411 32.6482 25.5306Z" fill="#FF9C77"/>
<path d="M29.9171 23.3335C20.7173 23.3335 20.5321 49.3361 21.8287 50.4297C23.1253 51.5233 36.4002 52.5561 37.5733 50.4297C38.7464 48.3034 39.9196 23.3335 29.9171 23.3335Z" fill="#FF9C77"/>
<path d="M26.7447 25.2882C24.4539 23.4814 19.1084 30.7086 19.1672 32.017C19.226 33.3254 23.6901 36.0667 24.6301 35.8174C25.57 35.5683 29.9884 27.8464 26.7447 25.2882Z" fill="#FF9C77"/>
<path d="M19.5619 32.0835C17.2828 35.7827 16.6668 40.6946 16.6668 41.5436C16.6668 43.848 17.8371 45.0002 18.5763 45.0002C21.5329 45.0002 31.2652 37.6019 31.9427 36.9955C32.6202 36.3891 30.6492 34.5699 30.3412 34.8729C30.0332 35.1762 26.5223 37.3593 21.4098 39.5424C22.1489 38.6328 24.3048 35.9039 24.3664 35.0549C24.428 34.206 19.5619 32.0835 19.5619 32.0835Z" fill="#FBD6C6"/>
<path d="M33.111 30L37.0835 30.573L36.0562 37.0833L32.0835 36.5103L33.111 30Z" fill="#4A546B"/>
<path d="M30.5769 35.9645C30.1354 35.1566 30.6385 33.9766 31.7007 33.3289C32.7628 32.681 33.9819 32.8107 34.4234 33.6186C34.8649 34.4264 34.3618 35.6065 33.2996 36.2542C32.2375 36.9021 31.0185 36.7722 30.5769 35.9645Z" fill="#FBD6C6"/>
<path d="M28.3334 24.0153C28.3334 24.7445 31.6667 24.8007 31.6667 24.0153V19.5835H28.3334V24.0153Z" fill="#FBD6C6"/>
<path d="M30.2084 22.5C28.4826 22.5 27.0835 19.9816 27.0835 16.8751C27.0835 13.7684 28.4826 11.25 30.2084 11.25C31.9344 11.25 33.3335 13.7684 33.3335 16.8751C33.3335 19.9816 31.9344 22.5 30.2084 22.5Z" fill="#FBD6C6"/>
<path d="M27.7085 18.7502C27.1333 18.7502 26.6669 18.3771 26.6669 17.9168C26.6669 17.4565 27.1333 17.0835 27.7085 17.0835C28.2838 17.0835 28.7502 17.4565 28.7502 17.9168C28.7502 18.3771 28.2838 18.7502 27.7085 18.7502Z" fill="#FBD6C6"/>
<path d="M16.3029 10.4738C18.7384 10.4738 20.7366 12.1324 23.3593 12.1324C25.2327 12.1324 27.0437 10 29.6664 10C33.0385 10 34.1001 11.7178 34.1001 12.9023C34.1001 13.8501 33.4756 14.9163 33.2882 14.9163C33.2882 14.6201 32.9135 13.5539 32.7886 13.4355C32.6638 13.8501 30.0411 16.7524 27.7306 16.7524V16.769C27.6036 16.6885 27.456 16.6422 27.3035 16.635C27.151 16.6278 26.9992 16.66 26.8646 16.7283C26.7299 16.7965 26.6172 16.8982 26.5387 17.0224C26.4602 17.1466 26.4187 17.2888 26.4187 17.4337C26.4187 17.5785 26.4602 17.7206 26.5387 17.8448C26.6172 17.969 26.7299 18.0707 26.8646 18.139C26.9992 18.2072 27.151 18.2395 27.3035 18.2323C27.456 18.2251 27.6036 18.1787 27.7306 18.0982V19.8326H27.1061C26.2943 19.8326 25.9196 19.5364 24.6706 19.5364C22.4851 19.5364 19.4252 22.0833 15.6784 22.0833C11.6195 22.0833 9.93343 19.181 9.93343 15.9233C9.93343 11.5992 14.2423 10.4738 16.3029 10.4738Z" fill="#4A546B"/>
<path d="M22.0835 50V71.6667H29.7183L35.8335 50.9195C33.6884 51.3074 25.565 51.6187 22.0835 50Z" fill="#638DEC"/>
</g>
</svg>
