<svg width="104" height="104" viewBox="0 0 104 104" fill="none" xmlns="http://www.w3.org/2000/svg">
<circle cx="52" cy="52" r="52" fill="#CCEEEA"/>
<circle cx="52" cy="52" r="42" fill="url(#paint0_radial_381_58587)"/>
<path fill-rule="evenodd" clip-rule="evenodd" d="M51.9984 36.5825C49.4671 36.5825 47.415 38.6345 47.415 41.1659V51.9992C47.415 54.5305 49.4671 56.5825 51.9984 56.5825C54.5297 56.5825 56.5817 54.5305 56.5817 51.9992V41.1659C56.5817 38.6345 54.5297 36.5825 51.9984 36.5825ZM44.915 41.1659C44.915 37.2538 48.0864 34.0825 51.9984 34.0825C55.9104 34.0825 59.0817 37.2538 59.0817 41.1659V51.9992C59.0817 55.9112 55.9104 59.0825 51.9984 59.0825C48.0864 59.0825 44.915 55.9112 44.915 51.9992V41.1659Z" fill="white"/>
<path fill-rule="evenodd" clip-rule="evenodd" d="M39.5 49.9175C40.1904 49.9175 40.75 50.4771 40.75 51.1675C40.75 57.3807 45.7868 62.4175 52 62.4175C58.2132 62.4175 63.25 57.3807 63.25 51.1675C63.25 50.4771 63.8096 49.9175 64.5 49.9175C65.1904 49.9175 65.75 50.4771 65.75 51.1675C65.75 58.7614 59.5939 64.9175 52 64.9175C44.4061 64.9175 38.25 58.7614 38.25 51.1675C38.25 50.4771 38.8096 49.9175 39.5 49.9175Z" fill="white"/>
<path fill-rule="evenodd" clip-rule="evenodd" d="M52 62.4175C52.6904 62.4175 53.25 62.9771 53.25 63.6675V68.6675C53.25 69.3578 52.6904 69.9175 52 69.9175C51.3096 69.9175 50.75 69.3578 50.75 68.6675V63.6675C50.75 62.9771 51.3096 62.4175 52 62.4175Z" fill="white"/>
<defs>
<radialGradient id="paint0_radial_381_58587" cx="0" cy="0" r="1" gradientUnits="userSpaceOnUse" gradientTransform="translate(52 52) rotate(90) scale(42)">
<stop stop-color="#9EF0DF"/>
<stop offset="1" stop-color="#208977"/>
</radialGradient>
</defs>
</svg>
