<svg width="200" height="200" viewBox="0 0 200 200" fill="none" xmlns="http://www.w3.org/2000/svg">
<path d="M167.283 25.2928L168.521 30.3202C168.589 30.5966 168.732 30.8492 168.933 31.0506C169.135 31.252 169.387 31.3945 169.664 31.4627L174.691 32.703C174.776 32.7241 174.851 32.7729 174.904 32.8416C174.958 32.9102 174.987 32.9948 174.987 33.0819C174.987 33.169 174.958 33.2535 174.904 33.3222C174.851 33.3908 174.776 33.4396 174.691 33.4608L169.664 34.701C169.387 34.7693 169.135 34.9118 168.933 35.1131C168.732 35.3145 168.589 35.5671 168.521 35.8436L167.283 40.8709C167.263 40.9563 167.214 41.0323 167.145 41.0867C167.076 41.141 166.991 41.1706 166.903 41.1706C166.815 41.1706 166.73 41.141 166.661 41.0867C166.592 41.0323 166.544 40.9563 166.523 40.8709L165.285 35.8436C165.217 35.5669 165.074 35.3141 164.872 35.1127C164.67 34.9113 164.417 34.7689 164.14 34.701L159.113 33.4608C159.029 33.4396 158.954 33.3908 158.9 33.3222C158.846 33.2535 158.817 33.169 158.817 33.0819C158.817 32.9948 158.846 32.9102 158.9 32.8416C158.954 32.7729 159.029 32.7241 159.113 32.703L164.14 31.4627C164.417 31.3948 164.67 31.2524 164.872 31.051C165.074 30.8496 165.217 30.5969 165.285 30.3202L166.523 25.2928C166.544 25.2074 166.592 25.1315 166.661 25.0771C166.73 25.0227 166.815 24.9932 166.903 24.9932C166.991 24.9932 167.076 25.0227 167.145 25.0771C167.214 25.1315 167.263 25.2074 167.283 25.2928Z" fill="#E8F9F0"/>
<path d="M99.3398 22.2538L98.9589 26.4101C98.9383 26.6388 98.9805 26.8688 99.081 27.0753C99.1815 27.2818 99.3365 27.457 99.5292 27.5819L103.031 29.8515C103.089 29.8897 103.133 29.9462 103.155 30.0119C103.178 30.0777 103.178 30.1491 103.156 30.2149C103.134 30.2808 103.09 30.3374 103.032 30.3758C102.974 30.4143 102.905 30.4325 102.836 30.4276L98.6796 30.0487C98.4511 30.0279 98.2212 30.0699 98.0147 30.17C97.8082 30.2702 97.6329 30.4247 97.5077 30.6171L95.2402 34.119C95.2044 34.1828 95.1475 34.2321 95.0793 34.2585C95.0111 34.2848 94.9358 34.2866 94.8665 34.2635C94.7971 34.2404 94.738 34.1938 94.6992 34.1318C94.6605 34.0698 94.6446 33.9962 94.6542 33.9237L95.0448 29.7675C95.0663 29.5389 95.0247 29.3087 94.9244 29.1021C94.8242 28.8955 94.6693 28.7203 94.4765 28.5956L90.9745 26.3261C90.9108 26.2903 90.8615 26.2334 90.8351 26.1652C90.8088 26.097 90.807 26.0218 90.8301 25.9524C90.8532 25.883 90.8998 25.8239 90.9618 25.7852C91.0238 25.7464 91.0974 25.7305 91.1698 25.7401L95.3241 26.1308C95.5529 26.1511 95.7828 26.1088 95.9893 26.0083C96.1957 25.9079 96.3709 25.753 96.496 25.5604L98.7655 22.0585C98.8042 22.0014 98.8605 21.9587 98.9258 21.9367C98.9912 21.9148 99.0619 21.915 99.1271 21.9372C99.1924 21.9594 99.2485 22.0024 99.2869 22.0596C99.3254 22.1168 99.3439 22.185 99.3398 22.2538Z" fill="#E8F9F0"/>
<path d="M27.8047 125.135L30.9551 128.74C31.1285 128.938 31.3528 129.085 31.6038 129.165C31.8548 129.245 32.1228 129.255 32.3789 129.193L37.0351 128.08C37.1135 128.062 37.1956 128.071 37.2685 128.104C37.3415 128.138 37.401 128.195 37.4378 128.267C37.4746 128.338 37.4864 128.42 37.4715 128.499C37.4566 128.578 37.4158 128.65 37.3555 128.703L33.7519 131.854C33.5533 132.027 33.4059 132.251 33.3257 132.502C33.2455 132.753 33.2355 133.021 33.2969 133.277L34.4121 137.932C34.4309 138.01 34.4228 138.093 34.3892 138.166C34.3556 138.239 34.2984 138.299 34.2267 138.337C34.155 138.374 34.0729 138.386 33.9936 138.371C33.9143 138.356 33.8423 138.315 33.789 138.254L30.6387 134.65C30.4653 134.452 30.2411 134.305 29.9901 134.224C29.7392 134.144 29.4711 134.134 29.2148 134.195L24.5586 135.309C24.4801 135.327 24.3975 135.319 24.3242 135.286C24.2508 135.252 24.1908 135.195 24.1537 135.123C24.1166 135.051 24.1046 134.969 24.1196 134.89C24.1345 134.811 24.1756 134.739 24.2363 134.686L27.8418 131.535C28.04 131.362 28.1872 131.137 28.2674 130.887C28.3476 130.636 28.3578 130.368 28.2969 130.111L27.1816 125.457C27.1629 125.379 27.1709 125.296 27.2045 125.223C27.2382 125.149 27.2954 125.089 27.3671 125.052C27.4388 125.015 27.5208 125.003 27.6001 125.018C27.6794 125.033 27.7514 125.074 27.8047 125.135Z" fill="#E8F9F0"/>
<path d="M167.188 96.875C169.776 96.875 171.875 94.7763 171.875 92.1875C171.875 89.5987 169.776 87.5 167.188 87.5C164.599 87.5 162.5 89.5987 162.5 92.1875C162.5 94.7763 164.599 96.875 167.188 96.875Z" fill="#E8F9F0"/>
<path d="M56.25 56.25H143.75C145.408 56.25 146.997 56.9085 148.169 58.0806C149.342 59.2527 150 60.8424 150 62.5V168.75C150 170.408 149.342 171.997 148.169 173.169C146.997 174.342 145.408 175 143.75 175H50V62.5C50 60.8424 50.6585 59.2527 51.8306 58.0806C53.0027 56.9085 54.5924 56.25 56.25 56.25Z" fill="white"/>
<path d="M143.75 175.781H49.2188V62.5C49.2188 60.6352 49.9595 58.8468 51.2782 57.5282C52.5968 56.2095 54.3852 55.4688 56.25 55.4688H143.75C145.615 55.4688 147.403 56.2095 148.722 57.5282C150.04 58.8468 150.781 60.6352 150.781 62.5V168.75C150.781 170.615 150.04 172.403 148.722 173.722C147.403 175.04 145.615 175.781 143.75 175.781ZM50.7812 174.219H143.75C145.2 174.219 146.591 173.643 147.617 172.617C148.643 171.591 149.219 170.2 149.219 168.75V62.5C149.219 61.0496 148.643 59.6586 147.617 58.633C146.591 57.6074 145.2 57.0312 143.75 57.0312H56.25C54.7996 57.0312 53.4086 57.6074 52.383 58.633C51.3574 59.6586 50.7812 61.0496 50.7812 62.5V174.219Z" fill="#595959"/>
<path d="M131.25 162.5V156.25C131.25 154.592 130.592 153.003 129.419 151.831C128.247 150.658 126.658 150 125 150H43.75C42.0924 150 40.5027 150.658 39.3306 151.831C38.1585 153.003 37.5 154.592 37.5 156.25V162.5C37.5 165.815 38.817 168.995 41.1612 171.339C43.5054 173.683 46.6848 175 50 175H143.75C140.435 175 137.255 173.683 134.911 171.339C132.567 168.995 131.25 165.815 131.25 162.5Z" fill="#006457"/>
<path d="M143.75 175.781H50C46.4787 175.778 43.1027 174.377 40.6127 171.887C38.1228 169.397 36.7224 166.021 36.7188 162.5V156.25C36.7188 154.385 37.4595 152.597 38.7782 151.278C40.0968 149.96 41.8852 149.219 43.75 149.219H125C126.865 149.219 128.653 149.96 129.972 151.278C131.29 152.597 132.031 154.385 132.031 156.25V162.5C132.035 165.607 133.271 168.586 135.468 170.782C137.664 172.979 140.643 174.215 143.75 174.219V175.781ZM43.75 150.781C42.2996 150.781 40.9086 151.357 39.883 152.383C38.8574 153.409 38.2812 154.8 38.2812 156.25V162.5C38.2849 165.607 39.5207 168.586 41.7176 170.782C43.9145 172.979 46.8931 174.215 50 174.219H137.5C135.377 173.085 133.601 171.396 132.363 169.332C131.125 167.268 130.47 164.907 130.469 162.5V156.25C130.469 154.8 129.893 153.409 128.867 152.383C127.841 151.357 126.45 150.781 125 150.781H43.75Z" fill="#595959"/>
<path d="M48.0918 46.2148C52.1504 46.2148 55.4512 42.8535 55.4512 38.7227C55.454 37.2384 55.0185 35.7864 54.1992 34.5488C52.9927 33.7185 51.5623 33.2744 50.0977 33.2754C49.9316 33.2754 49.7559 33.2754 49.5469 33.2988C49.4107 33.3086 49.2748 33.2764 49.1574 33.2066C49.0401 33.1367 48.947 33.0326 48.8906 32.9082C48.6098 32.3029 48.2435 31.7412 47.8027 31.2402L47.5391 31.2559C47.4028 31.2662 47.2666 31.2342 47.1492 31.1643C47.0317 31.0944 46.9387 30.99 46.8828 30.8652C46.7336 30.5411 46.5586 30.2296 46.3594 29.9336C44.5293 28.6133 42.0527 27.8281 39.3926 27.8281C33.8594 27.8281 29.3574 31.1895 29.3574 35.3203C29.3582 35.4088 29.3415 35.4966 29.3084 35.5786C29.2752 35.6607 29.2262 35.7354 29.1642 35.7985C29.1022 35.8616 29.0283 35.9119 28.9469 35.9465C28.8654 35.981 28.7779 35.9992 28.6895 36C24.6309 36 21.3301 38.75 21.3301 42.1309C21.3341 43.1076 21.6086 44.0642 22.123 44.8945C23.4815 45.7696 25.0658 46.2291 26.6816 46.2168L48.0918 46.2148Z" fill="#17BF6A"/>
<path d="M48.0918 47.6777H45.416C45.2088 47.6777 45.0101 47.5954 44.8636 47.4489C44.7171 47.3024 44.6348 47.1037 44.6348 46.8965C44.6348 46.6893 44.7171 46.4906 44.8636 46.3441C45.0101 46.1975 45.2088 46.1152 45.416 46.1152H48.0918C52.0879 46.1152 55.3379 42.7949 55.3379 38.7227C55.3379 34.6504 52.0879 31.332 48.0918 31.332C47.9297 31.332 47.7578 31.332 47.5508 31.3535C47.3916 31.3657 47.2325 31.3288 47.0949 31.2477C46.9573 31.1667 46.8478 31.0455 46.7812 30.9004C45.4141 27.8984 41.6309 25.8828 37.3887 25.8828C31.9199 25.8828 27.4648 29.2031 27.4648 33.2754C27.4648 33.4826 27.3825 33.6813 27.236 33.8278C27.0895 33.9743 26.8908 34.0566 26.6836 34.0566C22.6875 34.0566 19.4375 36.7598 19.4375 40.0859C19.4375 43.4121 22.6875 46.1152 26.6836 46.1152H40.0645C40.2717 46.1152 40.4704 46.1975 40.6169 46.3441C40.7634 46.4906 40.8457 46.6893 40.8457 46.8965C40.8457 47.1037 40.7634 47.3024 40.6169 47.4489C40.4704 47.5954 40.2717 47.6777 40.0645 47.6777H26.6836C21.8262 47.6777 17.875 44.2715 17.875 40.0859C17.875 36.1133 21.4316 32.8457 25.9434 32.5195C26.4355 27.9336 31.3809 24.3164 37.3887 24.3164C42.0098 24.3164 46.1777 26.4863 47.9609 29.7656H48.0918C52.9492 29.7656 56.9004 33.7813 56.9004 38.7188C56.9004 43.6563 52.9492 47.6777 48.0918 47.6777Z" fill="#595959"/>
<path d="M173.342 173.615C177.404 173.615 180.707 169.762 180.707 165.021C180.717 163.344 180.285 161.693 179.455 160.234C178.293 159.297 176.847 158.781 175.354 158.771C175.187 158.771 175.012 158.781 174.801 158.799C174.657 158.806 174.516 158.766 174.397 158.685C174.279 158.603 174.19 158.486 174.145 158.35C173.866 157.668 173.497 157.027 173.047 156.445L172.785 156.463C172.642 156.47 172.5 156.43 172.382 156.349C172.263 156.267 172.174 156.15 172.129 156.014C171.979 155.645 171.804 155.288 171.604 154.945C169.628 153.36 167.164 152.506 164.631 152.529C159.092 152.529 154.586 156.385 154.586 161.123C154.599 161.315 154.537 161.505 154.411 161.651C154.286 161.797 154.108 161.888 153.916 161.904C149.855 161.904 146.551 165.059 146.551 168.936C146.551 170.041 146.823 171.13 147.344 172.105C148.659 173.095 150.262 173.628 151.908 173.623L173.342 173.615Z" fill="#17BF6A"/>
<path d="M173.342 175.18H170.662C170.455 175.18 170.256 175.097 170.11 174.951C169.963 174.804 169.881 174.606 169.881 174.398C169.881 174.191 169.963 173.993 170.11 173.846C170.256 173.699 170.455 173.617 170.662 173.617H173.342C177.342 173.617 180.596 169.762 180.596 165.023C180.596 160.285 177.342 156.43 173.342 156.43C173.182 156.43 173.012 156.43 172.809 156.455C172.642 156.47 172.474 156.43 172.331 156.342C172.189 156.254 172.078 156.123 172.016 155.967C170.631 152.504 166.859 150.18 162.627 150.18C157.158 150.18 152.693 154.033 152.693 158.773C152.693 158.981 152.611 159.179 152.465 159.326C152.318 159.472 152.119 159.555 151.912 159.555C147.912 159.555 144.658 162.707 144.658 166.586C144.658 170.465 147.912 173.617 151.912 173.617H165.307C165.514 173.617 165.713 173.699 165.859 173.846C166.006 173.993 166.088 174.191 166.088 174.398C166.088 174.606 166.006 174.804 165.859 174.951C165.713 175.097 165.514 175.18 165.307 175.18H151.912C147.051 175.18 143.096 171.324 143.096 166.586C143.096 162.094 146.65 158.395 151.162 158.021C151.6 152.771 156.574 148.617 162.627 148.617C167.281 148.617 171.469 151.105 173.24 154.867H173.342C178.203 154.867 182.158 159.422 182.158 165.023C182.158 170.625 178.203 175.18 173.342 175.18Z" fill="#595959"/>
<path d="M81.123 87.5H43.623C40.1713 87.5 37.373 90.2982 37.373 93.75V106.25C37.373 109.702 40.1713 112.5 43.623 112.5H81.123C84.5748 112.5 87.373 109.702 87.373 106.25V93.75C87.373 90.2982 84.5748 87.5 81.123 87.5Z" fill="#FF9900"/>
<path d="M96.875 118.75H65.625C63.8991 118.75 62.5 120.149 62.5 121.875C62.5 123.601 63.8991 125 65.625 125H96.875C98.6009 125 100 123.601 100 121.875C100 120.149 98.6009 118.75 96.875 118.75Z" fill="#FF9900"/>
<path d="M68.75 81.25C72.2018 81.25 75 78.4518 75 75C75 71.5482 72.2018 68.75 68.75 68.75C65.2982 68.75 62.5 71.5482 62.5 75C62.5 78.4518 65.2982 81.25 68.75 81.25Z" fill="#4EB49F"/>
<path d="M68.75 82.0313C67.3594 82.0313 65.9999 81.6189 64.8437 80.8463C63.6874 80.0737 62.7862 78.9755 62.254 77.6907C61.7218 76.406 61.5826 74.9922 61.8539 73.6283C62.1252 72.2643 62.7948 71.0115 63.7782 70.0282C64.7615 69.0448 66.0143 68.3752 67.3783 68.1039C68.7422 67.8326 70.156 67.9718 71.4407 68.504C72.7255 69.0362 73.8237 69.9374 74.5963 71.0937C75.3689 72.2499 75.7813 73.6094 75.7813 75C75.7813 76.8648 75.0405 78.6532 73.7218 79.9718C72.4032 81.2905 70.6148 82.0313 68.75 82.0313ZM68.75 69.5313C67.6684 69.5313 66.6111 69.852 65.7117 70.4529C64.8124 71.0538 64.1115 71.9079 63.6975 72.9072C63.2836 73.9065 63.1753 75.0061 63.3863 76.0669C63.5973 77.1277 64.1182 78.1022 64.883 78.867C65.6478 79.6318 66.6223 80.1527 67.6831 80.3637C68.7439 80.5747 69.8435 80.4664 70.8428 80.0525C71.8421 79.6386 72.6962 78.9376 73.2971 78.0383C73.898 77.1389 74.2188 76.0816 74.2188 75C74.2188 73.5496 73.6426 72.1586 72.617 71.133C71.5914 70.1074 70.2004 69.5313 68.75 69.5313Z" fill="#595959"/>
<path d="M93.75 81.25C97.2018 81.25 100 78.4518 100 75C100 71.5482 97.2018 68.75 93.75 68.75C90.2982 68.75 87.5 71.5482 87.5 75C87.5 78.4518 90.2982 81.25 93.75 81.25Z" fill="#FF9900"/>
<path d="M93.75 82.0313C92.3594 82.0313 90.9999 81.6189 89.8437 80.8463C88.6874 80.0737 87.7862 78.9755 87.254 77.6907C86.7218 76.406 86.5826 74.9922 86.8539 73.6283C87.1252 72.2643 87.7948 71.0115 88.7782 70.0282C89.7615 69.0448 91.0143 68.3752 92.3783 68.1039C93.7422 67.8326 95.156 67.9718 96.4407 68.504C97.7255 69.0362 98.8237 69.9374 99.5963 71.0937C100.369 72.2499 100.781 73.6094 100.781 75C100.781 76.8648 100.04 78.6532 98.7218 79.9718C97.4032 81.2905 95.6148 82.0313 93.75 82.0313ZM93.75 69.5313C92.6684 69.5313 91.6111 69.852 90.7117 70.4529C89.8124 71.0538 89.1115 71.9079 88.6975 72.9072C88.2836 73.9065 88.1753 75.0061 88.3863 76.0669C88.5973 77.1277 89.1182 78.1022 89.883 78.867C90.6478 79.6318 91.6223 80.1527 92.6831 80.3637C93.7439 80.5747 94.8435 80.4664 95.8428 80.0525C96.8421 79.6386 97.6962 78.9376 98.2971 78.0383C98.898 77.1389 99.2188 76.0816 99.2188 75C99.2188 73.5496 98.6426 72.1586 97.617 71.133C96.5914 70.1074 95.2004 69.5313 93.75 69.5313Z" fill="#595959"/>
<path d="M137.5 88.2812C137.293 88.2812 137.094 88.1989 136.948 88.0524C136.801 87.9059 136.719 87.7072 136.719 87.5V81.25C136.719 81.0428 136.801 80.8441 136.948 80.6976C137.094 80.5511 137.293 80.4688 137.5 80.4688C137.707 80.4688 137.906 80.5511 138.052 80.6976C138.199 80.8441 138.281 81.0428 138.281 81.25V87.5C138.281 87.7072 138.199 87.9059 138.052 88.0524C137.906 88.1989 137.707 88.2812 137.5 88.2812Z" fill="#595959"/>
<path d="M137.5 119.531C137.293 119.531 137.094 119.449 136.948 119.302C136.801 119.156 136.719 118.957 136.719 118.75V93.75C136.719 93.5428 136.801 93.3441 136.948 93.1976C137.094 93.0511 137.293 92.9688 137.5 92.9688C137.707 92.9688 137.906 93.0511 138.052 93.1976C138.199 93.3441 138.281 93.5428 138.281 93.75V118.75C138.281 118.957 138.199 119.156 138.052 119.302C137.906 119.449 137.707 119.531 137.5 119.531Z" fill="#595959"/>
<path d="M173.603 118.511L138.675 149.96L135.703 152.637C132.419 155.593 127.361 155.328 124.405 152.045L121.728 149.072L109.015 134.952C106.797 132.49 106.996 128.696 109.459 126.479C111.921 124.261 115.715 124.46 117.932 126.923L130.646 141.043L165.574 109.593C168.036 107.376 171.83 107.575 174.047 110.037C176.265 112.5 176.066 116.294 173.603 118.511Z" fill="white"/>
<path fill-rule="evenodd" clip-rule="evenodd" d="M165.574 109.593C168.036 107.376 171.83 107.575 174.047 110.037C176.265 112.5 176.066 116.294 173.603 118.511L138.675 149.96L135.703 152.637C132.419 155.593 127.361 155.328 124.405 152.045L121.728 149.072L109.015 134.952C106.797 132.49 106.996 128.696 109.459 126.479C111.921 124.261 115.715 124.46 117.932 126.923L130.646 141.043L165.574 109.593ZM166.617 110.753C168.44 109.112 171.247 109.259 172.888 111.081C174.529 112.904 174.382 115.711 172.559 117.352L134.332 151.772C131.869 153.989 128.076 153.79 125.858 151.328L123.931 149.188L110.174 133.908C108.533 132.086 108.68 129.279 110.503 127.638C112.325 125.997 115.132 126.144 116.773 127.967L130.53 143.246L166.617 110.753Z" fill="#595959"/>
</svg>
