<svg width="384" height="118" viewBox="0 0 384 118" fill="none" xmlns="http://www.w3.org/2000/svg">
<g filter="url(#filter0_ddd_364_18609)">
<rect x="36" y="27" width="312" height="46" rx="23" fill="url(#paint0_linear_364_18609)"/>
</g>
<mask id="mask0_364_18609" style="mask-type:alpha" maskUnits="userSpaceOnUse" x="36" y="5" width="96" height="68">
<path d="M36 5H132V73H59C46.2974 73 36 62.7025 36 50V5Z" fill="white"/>
</mask>
<g mask="url(#mask0_364_18609)">
<path d="M127.694 22.7037L127.534 25.2152C127.526 25.3533 127.557 25.4946 127.625 25.6236C127.692 25.7527 127.794 25.8646 127.919 25.9474L130.187 27.4523C130.225 27.4777 130.254 27.5139 130.27 27.555C130.286 27.5962 130.287 27.64 130.274 27.6795C130.261 27.719 130.234 27.7518 130.197 27.7729C130.16 27.794 130.116 27.8021 130.072 27.7958L127.426 27.4156C127.281 27.3947 127.136 27.412 127.006 27.4655C126.877 27.519 126.769 27.6068 126.694 27.7194L125.324 29.7666C125.301 29.8014 125.266 29.8268 125.224 29.8385C125.182 29.8502 125.136 29.8476 125.093 29.8312C125.05 29.8147 125.013 29.7854 124.987 29.7478C124.962 29.7102 124.95 29.6667 124.953 29.6241L125.112 27.1127C125.121 26.9744 125.09 26.833 125.022 26.7039C124.954 26.5747 124.852 26.4628 124.727 26.38L122.458 24.8752C122.42 24.8498 122.391 24.8136 122.375 24.7724C122.36 24.7313 122.358 24.6875 122.371 24.648C122.385 24.6085 122.412 24.5756 122.448 24.5545C122.485 24.5335 122.529 24.5254 122.574 24.5316L125.219 24.9119C125.365 24.933 125.51 24.9159 125.639 24.8624C125.769 24.8089 125.877 24.7211 125.953 24.6084L127.322 22.5613C127.345 22.5264 127.381 22.5011 127.423 22.4893C127.465 22.4776 127.511 22.4802 127.554 22.4966C127.597 22.5131 127.634 22.5425 127.659 22.58C127.685 22.6176 127.697 22.6612 127.694 22.7037Z" fill="#E8F9F0"/>
<path d="M96.3644 9.65729L95.546 11.4702C95.5011 11.5701 95.4868 11.6823 95.5045 11.7948C95.5222 11.9072 95.5713 12.0157 95.6464 12.1085L97.0127 13.794C97.0353 13.8222 97.048 13.856 97.0491 13.89C97.0501 13.9241 97.0393 13.9564 97.0184 13.9821C96.9974 14.0078 96.9676 14.0253 96.9334 14.0319C96.8993 14.0385 96.8628 14.0338 96.8296 14.0186L94.856 13.0676C94.7474 13.0153 94.6287 12.9912 94.5125 12.9979C94.3964 13.0046 94.2872 13.0418 94.1968 13.1055L92.5558 14.2681C92.5286 14.2903 92.4933 14.302 92.456 14.3012C92.4186 14.3003 92.3816 14.287 92.3512 14.2635C92.3208 14.2401 92.299 14.2079 92.2895 14.1725C92.28 14.1371 92.2834 14.1008 92.2991 14.0697L93.1223 12.2586C93.1676 12.159 93.1822 12.0468 93.1647 11.9344C93.1471 11.8219 93.0981 11.7134 93.0228 11.6207L91.6566 9.93524C91.6308 9.90707 91.6154 9.87204 91.6129 9.83618C91.6104 9.80032 91.621 9.76587 91.6428 9.73876C91.6647 9.71164 91.6964 9.69356 91.7326 9.68762C91.7688 9.68168 91.8072 9.68826 91.8411 9.70621L93.8121 10.6622C93.9207 10.7143 94.0396 10.7382 94.1557 10.7314C94.2719 10.7245 94.3811 10.6871 94.4715 10.6233L96.1135 9.46108C96.141 9.44246 96.1751 9.43363 96.2103 9.43594C96.2456 9.43825 96.2801 9.45157 96.3087 9.47387C96.3372 9.49616 96.3581 9.52618 96.3681 9.55932C96.3782 9.59246 96.3769 9.62688 96.3644 9.65729Z" fill="#E8F9F0"/>
<path d="M45.0459 45.6861L46.0371 47.9113C46.0917 48.0337 46.179 48.1425 46.2895 48.2257C46.4 48.309 46.5295 48.3636 46.6641 48.3837L49.1091 48.7519C49.1501 48.7584 49.189 48.7777 49.2194 48.8067C49.2499 48.8357 49.2704 48.8728 49.2774 48.9121C49.2845 48.9515 49.2779 48.9907 49.2586 49.0238C49.2393 49.0568 49.2084 49.0817 49.1708 49.0945L46.9304 49.8472C46.807 49.8885 46.7009 49.9625 46.6235 50.0613C46.5461 50.16 46.5004 50.2797 46.4914 50.4074L46.3284 52.7266C46.3257 52.7658 46.3092 52.8017 46.2816 52.8286C46.254 52.8556 46.2169 52.8721 46.1762 52.8755C46.1355 52.8788 46.0936 52.8689 46.0571 52.8472C46.0206 52.8256 45.9917 52.7934 45.9749 52.7559L44.9834 50.5316C44.9289 50.4091 44.8417 50.3003 44.7312 50.2169C44.6208 50.1335 44.4913 50.0786 44.3568 50.0583L41.9117 49.6901C41.8705 49.6839 41.8314 49.6647 41.8007 49.6357C41.7699 49.6067 41.7493 49.5695 41.7421 49.5301C41.7348 49.4906 41.7415 49.4512 41.7608 49.418C41.7802 49.3849 41.8113 49.3599 41.849 49.3472L44.0904 48.5948C44.2137 48.5534 44.3197 48.4793 44.3971 48.3805C44.4744 48.2818 44.5202 48.1622 44.5294 48.0346L44.6924 45.7154C44.6952 45.6763 44.7117 45.6404 44.7392 45.6134C44.7668 45.5864 44.8039 45.5699 44.8446 45.5666C44.8853 45.5632 44.9272 45.5731 44.9637 45.5948C45.0002 45.6165 45.0291 45.6486 45.0459 45.6861Z" fill="#E8F9F0"/>
<path d="M111.361 67.8543C112.626 68.3397 113.971 67.7816 114.365 66.6079C114.759 65.4342 114.052 64.0893 112.787 63.6039C111.522 63.1186 110.177 63.6766 109.783 64.8503C109.389 66.024 110.096 67.369 111.361 67.8543Z" fill="#E8F9F0"/>
<path d="M107.105 48.6378L111.908 34.3624C112.163 33.6052 112.082 32.7546 111.683 31.9977C111.285 31.2408 110.601 30.6397 109.783 30.3265L94.3556 24.4224C94.865 22.908 94.7035 21.2068 93.9065 19.693C93.1095 18.1793 91.7423 16.977 90.1056 16.3506C88.469 15.7243 86.697 15.7252 85.1795 16.3531C83.6619 16.9811 82.5232 18.1847 82.0137 19.6991L66.5863 13.795C65.768 13.4819 64.882 13.4823 64.1232 13.7963C63.3645 14.1103 62.7951 14.7121 62.5403 15.4693L45.2514 66.8607C44.9966 67.6179 45.0774 68.4686 45.4759 69.2254C45.8744 69.9823 46.558 70.5835 47.3763 70.8966L90.573 87.4281C91.3913 87.7413 92.2773 87.7408 93.036 87.4268C93.7948 87.1129 94.3642 86.5111 94.6189 85.7538L102.303 62.9132" fill="white"/>
<path d="M90.4512 87.7811L47.2609 71.2512C46.3404 70.8989 45.5714 70.2227 45.1232 69.3713C44.6749 68.5199 44.5841 67.563 44.8706 66.7113L62.1571 15.3246C62.4436 14.4728 63.0841 13.7959 63.9376 13.4427C64.7911 13.0895 65.7877 13.089 66.7082 13.4413L81.7592 19.2017C82.3778 17.6958 83.5984 16.5257 85.1716 15.9306C86.7448 15.3356 88.5516 15.3604 90.2229 16C91.8942 16.6396 93.3037 17.8458 94.1633 19.372C95.0228 20.8981 95.2676 22.629 94.8475 24.2108L109.899 29.9712C110.819 30.3235 111.588 30.9997 112.036 31.8511C112.484 32.7025 112.575 33.6594 112.289 34.5112L107.487 48.7852C107.455 48.8799 107.384 48.9551 107.289 48.9943C107.194 49.0336 107.084 49.0336 106.981 48.9945C106.879 48.9553 106.794 48.8802 106.744 48.7856C106.694 48.691 106.684 48.5847 106.716 48.49L111.518 34.216C111.74 33.5535 111.67 32.8093 111.321 32.1471C110.972 31.4849 110.374 30.9589 109.658 30.6849L94.2333 24.7814C94.131 24.7422 94.0456 24.6671 93.9958 24.5725C93.946 24.4779 93.9359 24.3716 93.9677 24.2769C94.4453 22.8573 94.2939 21.2625 93.5468 19.8435C92.7997 18.4245 91.5181 17.2975 89.984 16.7103C88.4499 16.1232 86.7888 16.124 85.3664 16.7127C83.9439 17.3014 82.8764 18.4296 82.3989 19.8493C82.367 19.9439 82.2959 20.0191 82.201 20.0584C82.1062 20.0976 81.9955 20.0977 81.8932 20.0585L66.4681 14.155C65.7521 13.881 64.977 13.8814 64.3132 14.1561C63.6493 14.4308 63.1512 14.9573 62.9283 15.6198L45.6419 67.0064C45.419 67.6689 45.4897 68.4131 45.8383 69.0754C46.1869 69.7376 46.785 70.2635 47.5009 70.5375L90.6913 87.0674C91.4073 87.3414 92.1824 87.341 92.8462 87.0663C93.51 86.7916 94.0082 86.2651 94.2311 85.6026L101.914 62.7641C101.946 62.6695 102.017 62.5942 102.112 62.555C102.207 62.5158 102.317 62.5157 102.42 62.5548C102.522 62.594 102.607 62.6691 102.657 62.7637C102.707 62.8583 102.717 62.9646 102.685 63.0593L95.0023 85.8978C94.7158 86.7496 94.0753 87.4265 93.2218 87.7797C92.3683 88.1329 91.3717 88.1334 90.4512 87.7811Z" fill="#595959"/>
<path d="M89.1551 35.5416L68.128 27.5097C67.2985 27.1929 66.417 27.5582 66.159 28.3257L63.3566 36.6638C63.0986 37.4313 63.5619 38.3103 64.3914 38.6272L85.4186 46.659C86.2481 46.9758 87.1296 46.6105 87.3876 45.843L90.19 37.505C90.4479 36.7375 89.9846 35.8584 89.1551 35.5416Z" fill="#006457"/>
<path d="M85.3066 47.0157L64.2673 38.976C63.7691 38.7856 63.3529 38.4199 63.1101 37.9592C62.8674 37.4985 62.8181 36.9807 62.973 36.5195L65.7772 28.1742C65.9322 27.7131 66.2787 27.3465 66.7405 27.155C67.2024 26.9636 67.7417 26.963 68.24 27.1534L89.2792 35.1931C89.7774 35.3835 90.1937 35.7492 90.4364 36.2099C90.6792 36.6706 90.7285 37.1884 90.5735 37.6496L87.7693 45.9949C87.6144 46.456 87.2679 46.8226 86.806 47.0141C86.3442 47.2055 85.8048 47.2061 85.3066 47.0157ZM68.0063 27.8488C67.7073 27.7346 67.3837 27.735 67.1066 27.8498C66.8295 27.9647 66.6216 28.1846 66.5286 28.4613L63.7244 36.8067C63.6315 37.0833 63.6611 37.3941 63.8067 37.6705C63.9523 37.9469 64.2021 38.1663 64.501 38.2805L85.5403 46.3203C85.8392 46.4345 86.1628 46.4341 86.4399 46.3193C86.717 46.2044 86.925 45.9845 87.0179 45.7078L89.8221 37.3624C89.9151 37.0858 89.8855 36.775 89.7399 36.4986C89.5942 36.2222 89.3445 36.0028 89.0455 35.8885L68.0063 27.8488Z" fill="#595959"/>
<path d="M82.7577 52.9682L61.947 45.1163C61.1261 44.8065 60.2539 45.1654 59.999 45.9179L59.0758 48.6428C58.8209 49.3953 59.2798 50.2564 60.1007 50.5662L80.9114 58.4181C81.7324 58.7279 82.6045 58.369 82.8595 57.6165L83.7826 54.8916C84.0375 54.1391 83.5787 53.278 82.7577 52.9682Z" fill="#FF9900"/>
<path d="M80.8053 58.7766L59.9736 50.9032C59.4803 50.7167 59.068 50.3581 58.8276 49.9061C58.5871 49.4541 58.538 48.9459 58.6912 48.4931L59.6155 45.7618C59.7687 45.309 60.1116 44.9489 60.5688 44.7606C61.0259 44.5723 61.5599 44.5712 62.0532 44.7577L82.8849 52.6311C83.3782 52.8176 83.7904 53.1762 84.0309 53.6282C84.2714 54.0802 84.3204 54.5884 84.1672 55.0412L83.2429 57.7725C83.0897 58.2253 82.7468 58.5854 82.2897 58.7737C81.8325 58.962 81.2986 58.9631 80.8053 58.7766ZM61.8221 45.4405C61.5261 45.3286 61.2057 45.3293 60.9314 45.4423C60.6572 45.5552 60.4514 45.7713 60.3595 46.043L59.4352 48.7743C59.3433 49.0459 59.3727 49.3509 59.517 49.6221C59.6613 49.8933 59.9086 50.1085 60.2046 50.2203L81.0364 58.0938C81.3323 58.2057 81.6527 58.205 81.927 58.092C82.2013 57.9791 82.407 57.763 82.4989 57.4913L83.4232 54.76C83.5151 54.4883 83.4857 54.1834 83.3414 53.9122C83.1971 53.641 82.9498 53.4258 82.6538 53.314L61.8221 45.4405Z" fill="#595959"/>
<path d="M114.915 41.4178L119.316 46.3301L91.8068 70.2016L83.7374 70.2905L85.2044 62.8328L114.915 41.4178Z" fill="white"/>
<path d="M83.6227 70.6448C83.5274 70.6091 83.4461 70.5422 83.3942 70.4569C83.3424 70.3715 83.3237 70.2737 83.3417 70.1821L84.8084 62.7252C84.8252 62.6393 84.8733 62.5642 84.9444 62.5127L114.648 41.1049C114.728 41.0474 114.831 41.0237 114.935 41.0388C115.039 41.0539 115.137 41.1065 115.208 41.1858L119.608 46.097C119.679 46.1762 119.717 46.2759 119.716 46.3753C119.714 46.4746 119.671 46.5659 119.597 46.6301L92.0974 70.495C92.0309 70.5528 91.9429 70.5843 91.849 70.5838L83.7824 70.6736C83.7286 70.6739 83.6744 70.6641 83.6227 70.6448ZM85.5823 63.0674L84.2393 69.8943L91.6249 69.8128L118.748 46.2743L114.876 41.9512L85.5823 63.0674Z" fill="#595959"/>
<path d="M55.2559 69.0135C56.9429 69.6607 58.7362 68.9166 59.2613 67.3517C59.7864 65.7867 58.8445 63.9935 57.1575 63.3463C55.4705 62.6992 53.6773 63.4432 53.1522 65.0082C52.627 66.5731 53.5689 68.3664 55.2559 69.0135Z" fill="#4EB49F"/>
<path d="M55.1371 69.3677C54.4574 69.1069 53.8558 68.6651 53.4082 68.0981C52.9606 67.531 52.6872 66.8642 52.6226 66.1819C52.5579 65.4996 52.705 64.8326 53.045 64.2651C53.3851 63.6975 53.903 63.2551 54.5332 62.9936C55.1634 62.7321 55.8775 62.6634 56.5854 62.7961C57.2933 62.9288 57.963 63.257 58.51 63.7392C59.0569 64.2213 59.4565 64.8358 59.6582 65.5049C59.8599 66.1739 59.8547 66.8676 59.6431 67.4981C59.3594 68.3435 58.7253 69.0155 57.8803 69.3661C57.0352 69.7167 56.0485 69.7173 55.1371 69.3677ZM57.0387 63.7005C56.51 63.4977 55.9445 63.4449 55.4136 63.5487C54.8826 63.6525 54.4101 63.9083 54.0558 64.2838C53.7015 64.6592 53.4813 65.1375 53.423 65.658C53.3648 66.1785 53.4711 66.7179 53.7285 67.2081C53.986 67.6982 54.383 68.117 54.8693 68.4116C55.3557 68.7061 55.9096 68.8632 56.4609 68.8629C57.0123 68.8626 57.5363 68.7049 57.9668 68.4098C58.3973 68.1147 58.7149 67.6955 58.8795 67.2051C59.1001 66.5476 59.0301 65.8089 58.6849 65.1516C58.3397 64.4944 57.7475 63.9724 57.0387 63.7005Z" fill="#595959"/>
<path d="M67.0021 73.2889C68.6891 73.936 70.4823 73.192 71.0074 71.6271C71.5325 70.0621 70.5906 68.2688 68.9037 67.6217C67.2167 66.9746 65.4234 67.7186 64.8983 69.2836C64.3732 70.8485 65.3151 72.6418 67.0021 73.2889Z" fill="#FF9900"/>
<path d="M66.8832 73.643C66.2036 73.3823 65.6019 72.9405 65.1544 72.3734C64.7068 71.8064 64.4334 71.1396 64.3687 70.4573C64.3041 69.775 64.4511 69.108 64.7912 68.5404C65.1313 67.9729 65.6492 67.5305 66.2793 67.269C66.9095 67.0075 67.6237 66.9388 68.3316 67.0715C69.0394 67.2042 69.7092 67.5324 70.2561 68.0146C70.8031 68.4967 71.2027 69.1112 71.4044 69.7803C71.6061 70.4493 71.6008 71.143 71.3893 71.7735C71.1056 72.6189 70.4715 73.2909 69.6264 73.6415C68.7814 73.9921 67.7946 73.9927 66.8832 73.643ZM68.7848 67.9758C68.2562 67.7731 67.6907 67.7202 67.1597 67.8241C66.6288 67.9279 66.1563 68.1837 65.802 68.5592C65.4476 68.9346 65.2274 69.4129 65.1692 69.9334C65.1109 70.4539 65.2173 70.9933 65.4747 71.4835C65.7321 71.9736 66.1291 72.3924 66.6155 72.687C67.1019 72.9815 67.6557 73.1386 68.2071 73.1383C68.7584 73.138 69.2825 72.9803 69.713 72.6852C70.1435 72.3901 70.4611 71.9709 70.6256 71.4805C70.8463 70.8229 70.7763 70.0843 70.4311 69.427C70.0858 68.7698 69.4937 68.2478 68.7848 67.9758Z" fill="#595959"/>
<path d="M88.1275 24.3841C89.8145 25.0313 91.6077 24.2872 92.1328 22.7223C92.6579 21.1573 91.716 19.3641 90.0291 18.7169C88.3421 18.0698 86.5488 18.8138 86.0237 20.3788C85.4986 21.9437 86.4405 23.737 88.1275 24.3841Z" fill="#006457"/>
<path d="M88.0086 24.7383C87.329 24.4775 86.7273 24.0357 86.2798 23.4687C85.8322 22.9016 85.5588 22.2348 85.4941 21.5525C85.4295 20.8702 85.5765 20.2032 85.9166 19.6357C86.2567 19.0681 86.7745 18.6257 87.4047 18.3642C88.0349 18.1028 88.7491 18.034 89.4569 18.1667C90.1648 18.2994 90.8346 18.6276 91.3815 19.1098C91.9285 19.5919 92.3281 20.2064 92.5298 20.8755C92.7315 21.5445 92.7262 22.2382 92.5147 22.8687C92.231 23.7141 91.5969 24.3861 90.7518 24.7367C89.9068 25.0873 88.92 25.0879 88.0086 24.7383ZM89.9102 19.0711C89.3816 18.8683 88.8161 18.8155 88.2851 18.9193C87.7542 19.0231 87.2817 19.2789 86.9273 19.6544C86.573 20.0298 86.3528 20.5081 86.2946 21.0286C86.2363 21.5491 86.3426 22.0885 86.6001 22.5787C86.8575 23.0688 87.2545 23.4876 87.7409 23.7822C88.2273 24.0767 88.7811 24.2338 89.3325 24.2335C89.8838 24.2332 90.4079 24.0755 90.8384 23.7804C91.2689 23.4854 91.5865 23.0661 91.751 22.5757C91.9717 21.9182 91.9017 21.1795 91.5565 20.5222C91.2112 19.865 90.6191 19.343 89.9102 19.0711Z" fill="#595959"/>
<path d="M103.242 42.1152C103.134 42.0754 103.044 41.9989 102.992 41.9025C102.94 41.8062 102.929 41.6978 102.962 41.6014L103.97 38.6912C104.004 38.5947 104.078 38.518 104.178 38.4779C104.278 38.4378 104.394 38.4377 104.501 38.4775C104.609 38.5173 104.699 38.5938 104.751 38.6901C104.803 38.7865 104.814 38.8948 104.781 38.9913L103.773 41.9015C103.739 41.998 103.665 42.0747 103.565 42.1148C103.465 42.1548 103.349 42.155 103.242 42.1152Z" fill="#595959"/>
<path d="M105.515 36.2511C105.416 36.2138 105.334 36.1419 105.286 36.0513C105.238 35.9607 105.228 35.8588 105.259 35.7681C105.473 35.1329 105.405 34.4198 105.068 33.7857C104.731 33.1515 104.153 32.6483 103.462 32.3866L94.5255 29.0041C94.4268 28.9668 94.3442 28.8949 94.2961 28.8043C94.248 28.7137 94.2382 28.6118 94.2688 28.5211C94.2995 28.4303 94.3682 28.3582 94.4597 28.3204C94.5512 28.2827 94.6581 28.2825 94.7568 28.3199L103.693 31.7024C104.582 32.0388 105.325 32.6858 105.758 33.5012C106.191 34.3165 106.279 35.2333 106.003 36.05C105.973 36.1407 105.904 36.2129 105.812 36.2506C105.721 36.2883 105.614 36.2885 105.515 36.2511Z" fill="#595959"/>
</g>
<path d="M188.176 50.192C187.312 50.48 186.4 50.752 185.44 51.008V48.496H189.024C189.152 49.664 189.328 50.688 189.552 51.552C189.696 52.128 189.856 52.672 190.048 53.2C188.928 54.224 187.616 55.008 186.112 55.552L186.96 56.864C188.336 56.336 189.568 55.6 190.672 54.672C190.912 55.184 191.184 55.616 191.488 56C192.24 56.944 192.96 57.424 193.648 57.424C194.416 57.424 195.008 56.272 195.408 54L194.064 53.296C193.856 54.96 193.648 55.792 193.44 55.792C193.184 55.792 192.816 55.424 192.336 54.704C192.144 54.416 191.968 54.048 191.776 53.616C192.768 52.56 193.616 51.296 194.336 49.824L193.024 49.136C192.512 50.192 191.904 51.136 191.216 51.968C191.136 51.712 191.056 51.44 190.992 51.136C190.8 50.432 190.656 49.552 190.56 48.496H195.264V47.04H190.432C190.336 45.856 190.288 44.48 190.288 42.912H188.752C188.752 44.416 188.8 45.792 188.896 47.04H185.44V45.008C186.192 44.8 186.912 44.576 187.6 44.336L187.072 42.912C185.344 43.616 183.36 44.08 181.12 44.32L181.44 45.76C182.288 45.632 183.104 45.504 183.904 45.344V47.04H180.736V48.496H183.904V51.36C182.896 51.568 181.84 51.76 180.736 51.936L180.944 53.456C181.968 53.296 182.944 53.104 183.904 52.896V55.504C183.904 55.888 183.696 56.08 183.296 56.08C182.784 56.08 182.256 56.048 181.696 55.984L182.032 57.44H183.824C184.896 57.44 185.44 56.912 185.44 55.888V52.544C186.4 52.288 187.312 52.032 188.176 51.744V50.192ZM192.048 43.056L191.024 44.032C192.24 44.848 193.168 45.6 193.84 46.304L194.944 45.216C194.144 44.496 193.184 43.776 192.048 43.056ZM196.88 43.424V44.784H201.472V45.952H197.84V50.192H201.888C201.68 50.56 201.456 50.928 201.232 51.312H196.672V52.72H200.368C200.048 53.232 199.696 53.744 199.344 54.256C200.576 54.544 201.808 54.864 203.04 55.232C201.632 55.712 199.632 56.08 197.072 56.368L197.648 57.712C201.072 57.248 203.536 56.624 205.04 55.856C206.752 56.416 208.464 57.056 210.16 57.776L211.104 56.528C209.504 55.92 207.936 55.376 206.416 54.912C207.136 54.272 207.648 53.552 207.968 52.72H211.312V51.312H202.96C203.152 50.96 203.36 50.592 203.6 50.192H210.16V45.952H206.528V44.784H211.12V43.424H196.88ZM204.768 54.432C203.648 54.128 202.56 53.872 201.488 53.648L202.112 52.72H206.384C206.064 53.392 205.52 53.952 204.768 54.432ZM205.072 45.952H202.928V44.784H205.072V45.952ZM208.704 48.896H206.528V47.248H208.704V48.896ZM205.072 48.896H202.928V47.248H205.072V48.896ZM201.472 48.896H199.296V47.248H201.472V48.896ZM215.664 42.88V45.472H213.056V46.72H215.888V49.968H217.296V46.72H220.224V45.472H217.056V44.72H219.696V43.568H217.056V42.88H215.664ZM225.184 50.256H214.96V57.696H216.432V57.088H223.712V57.68H225.184V50.256ZM216.432 55.936V55.12H223.712V55.936H216.432ZM216.432 54.064V53.232H223.712V54.064H216.432ZM216.432 52.192V51.408H223.712V52.192H216.432ZM218.944 47.072L217.792 47.44C218.192 48.112 218.56 48.88 218.912 49.744L220 49.264C219.712 48.48 219.36 47.744 218.944 47.072ZM220.976 45.088C221.264 46.096 221.792 47.008 222.56 47.808C221.92 48.192 221.168 48.512 220.304 48.784L220.96 50.048C221.984 49.696 222.864 49.248 223.632 48.72C224.416 49.264 225.392 49.744 226.544 50.144L227.2 48.912C226.24 48.576 225.408 48.208 224.72 47.808C225.52 47.008 226.096 46.08 226.448 45.008V43.776H220.336V45.088H220.976ZM223.6 47.008C222.928 46.432 222.512 45.792 222.336 45.088H224.928C224.64 45.792 224.192 46.432 223.6 47.008ZM214.224 47.072C213.952 47.968 213.504 48.8 212.896 49.568L213.984 50.256C214.624 49.424 215.12 48.448 215.488 47.328L214.224 47.072ZM231.136 48.816V54.864H240.928V48.816H231.136ZM239.456 53.52H232.608V52.512H239.456V53.52ZM232.608 51.232V50.16H239.456V51.232H232.608ZM229.408 44.192V45.6H233.968C232.752 46.528 230.976 47.312 228.624 47.952L229.44 49.296C232.096 48.336 234.048 47.104 235.296 45.632V48.336H236.768V45.616C237.968 47.12 239.936 48.352 242.688 49.296L243.344 47.92C241.056 47.344 239.312 46.56 238.128 45.6H242.656V44.192H236.768V42.848H235.296V44.192H229.408ZM229.088 55.824V57.216H242.928V55.824H229.088Z" fill="white"/>
<defs>
<filter id="filter0_ddd_364_18609" x="0" y="0" width="384" height="118" filterUnits="userSpaceOnUse" color-interpolation-filters="sRGB">
<feFlood flood-opacity="0" result="BackgroundImageFix"/>
<feColorMatrix in="SourceAlpha" type="matrix" values="0 0 0 0 0 0 0 0 0 0 0 0 0 0 0 0 0 0 127 0" result="hardAlpha"/>
<feMorphology radius="4" operator="erode" in="SourceAlpha" result="effect1_dropShadow_364_18609"/>
<feOffset dy="3"/>
<feGaussianBlur stdDeviation="3"/>
<feComposite in2="hardAlpha" operator="out"/>
<feColorMatrix type="matrix" values="0 0 0 0 0.12549 0 0 0 0 0.537255 0 0 0 0 0.466667 0 0 0 0.12 0"/>
<feBlend mode="normal" in2="BackgroundImageFix" result="effect1_dropShadow_364_18609"/>
<feColorMatrix in="SourceAlpha" type="matrix" values="0 0 0 0 0 0 0 0 0 0 0 0 0 0 0 0 0 0 127 0" result="hardAlpha"/>
<feOffset dy="6"/>
<feGaussianBlur stdDeviation="8"/>
<feComposite in2="hardAlpha" operator="out"/>
<feColorMatrix type="matrix" values="0 0 0 0 0.12549 0 0 0 0 0.537255 0 0 0 0 0.466667 0 0 0 0.08 0"/>
<feBlend mode="normal" in2="effect1_dropShadow_364_18609" result="effect2_dropShadow_364_18609"/>
<feColorMatrix in="SourceAlpha" type="matrix" values="0 0 0 0 0 0 0 0 0 0 0 0 0 0 0 0 0 0 127 0" result="hardAlpha"/>
<feMorphology radius="8" operator="dilate" in="SourceAlpha" result="effect3_dropShadow_364_18609"/>
<feOffset dy="9"/>
<feGaussianBlur stdDeviation="14"/>
<feComposite in2="hardAlpha" operator="out"/>
<feColorMatrix type="matrix" values="0 0 0 0 0.12549 0 0 0 0 0.537255 0 0 0 0 0.466667 0 0 0 0.05 0"/>
<feBlend mode="normal" in2="effect2_dropShadow_364_18609" result="effect3_dropShadow_364_18609"/>
<feBlend mode="normal" in="SourceGraphic" in2="effect3_dropShadow_364_18609" result="shape"/>
</filter>
<linearGradient id="paint0_linear_364_18609" x1="36" y1="50" x2="348" y2="50" gradientUnits="userSpaceOnUse">
<stop stop-color="#4EB49F"/>
<stop offset="1" stop-color="#208977"/>
</linearGradient>
</defs>
</svg>
