<svg width="50" height="60" viewBox="0 0 50 60" fill="none" xmlns="http://www.w3.org/2000/svg">
<mask id="mask0_1015_26715" style="mask-type:luminance" maskUnits="userSpaceOnUse" x="0" y="0" width="50" height="60">
<path d="M50 0H0V60H50V0Z" fill="white"/>
</mask>
<g mask="url(#mask0_1015_26715)">
<path d="M23.346 12.1942C25.0643 11.9677 26.595 13.061 26.595 14.3972C26.595 14.6882 26.4811 15.2131 26.7034 15.8782C26.8521 16.323 27.4756 16.8973 27.4701 17.5035C27.4645 18.1096 26.5587 17.9729 26.6308 18.515C26.7029 19.0566 27.0643 20.1765 26.8113 20.6097C26.5587 21.0433 23.7427 20.5375 23.6706 21.5486C23.5985 22.5596 24.3203 24.5045 24.3203 24.5045L18.2552 24.0406C18.2552 24.0406 17.7486 14.6751 18.2552 13.9636C19.104 12.772 21.974 12.3747 23.346 12.1942Z" fill="#FBD6C6"/>
<path d="M46.619 39.9861C46.619 40.3431 46.4724 40.6845 46.2133 40.93C37.4188 49.2679 22.4558 49.2033 22.4558 49.2033V30.2181C22.4558 30.2181 35.9681 31.4672 45.8912 22.2514C46.0172 22.1339 46.2012 22.1027 46.359 22.1718C46.5167 22.2408 46.619 22.3967 46.619 22.5691V39.9861Z" fill="#CEDAE4"/>
<path d="M41.9617 33.1122C41.9617 33.1122 43.3155 31.5409 43.5862 31.2162C43.8569 30.8909 44.0781 28.9949 44.563 28.5073C45.0479 28.0197 46.5797 27.1761 46.9844 27.2215C47.5565 27.286 48.1664 29.7392 47.9582 31.4996C47.7667 33.1182 46.8685 33.6664 45.5212 33.8832C44.8201 33.9961 43.4904 35.5629 43.3821 35.996L41.9617 33.1122Z" fill="#FBD6C6"/>
<path d="M25.0249 27.5438C25.0249 27.5438 25.2109 24.7482 24.2442 24.4422C23.2774 24.1361 18.6907 22.763 18.0727 23.6843C17.4553 24.6055 17.3635 27.0229 17.3635 27.0229L25.0249 27.5438Z" fill="#1EAF69"/>
<path d="M28.1485 12.0688C28.0688 9.23384 16.2672 8.59797 16.0117 14.8114C15.8645 18.3982 16.805 21.3677 17.6322 21.3571C19.8016 21.3289 18.4749 17.5414 19.73 17.374C21.1257 17.1874 19.7179 23.5496 23.2613 23.1755C29.2044 22.5472 27.653 18.1097 23.9715 18.8192C20.29 19.5287 21.2129 15.4261 24.281 14.6586C27.3486 13.8901 28.2064 14.1352 28.1485 12.0688Z" fill="#415171"/>
<path d="M13.746 54.1869C13.746 54.1869 13.4864 63.7112 14.7763 73.3657L11.7308 95.744C11.7061 95.9245 11.7586 96.1065 11.8745 96.2467C11.9904 96.3869 12.1603 96.4716 12.3417 96.4812L17.5107 96.7439C17.8131 96.7591 18.0848 96.5639 18.168 96.273C18.9845 93.4108 23.0405 78.9947 23.3324 74.1241C23.6575 68.7064 24.8485 54.2953 22.2492 52.7785C19.6498 51.2617 14.0792 49.7374 13.746 54.1869Z" fill="#20355B"/>
<path d="M16.9427 53.6457C17.6681 59.3468 22.6833 75.425 23.8743 77.5917L24.6037 96.8754C24.6203 97.3111 24.957 97.6666 25.391 97.7059L29.6985 98.0977C29.9319 98.1189 30.1642 98.0448 30.3422 97.8915C30.5201 97.7382 30.628 97.5199 30.6421 97.2854L31.8891 76.1728C31.8891 76.1728 30.4813 54.8368 27.8814 52.67C25.2816 50.5032 16.5703 50.7185 16.9427 53.6457Z" fill="#2B4067"/>
<path d="M16.8847 39.0585C18.4341 37.9007 20.225 36.3773 20.8228 35.1434C21.9493 32.8173 21.2976 22.8527 17.1488 25.8863C13 28.9199 9.83667 38.0585 10.0065 41.1476C10.1764 44.2366 24.0582 50.4627 24.0582 50.4627L25.2457 45.4353C25.2457 45.4353 19.6226 41.0982 16.8847 39.0585Z" fill="#1EAF69"/>
<path d="M44.8957 34.9519L42.6487 31.9844C42.5071 31.7973 42.2425 31.7569 42.0514 31.8936C40.9627 32.6727 37.5287 35.1798 35.1834 37.4167C33.2221 33.9378 28.2039 25.5536 25.2825 25.365C23.6812 24.8774 18.5672 24.173 16.5097 26.1234C14.4517 28.0739 15.2097 32.8416 14.8851 40.2093C14.56 47.5774 11.4193 54.4035 13.9103 55.4872C16.4013 56.5708 18.8923 53.8619 22.2502 53.9704C25.6076 54.0788 29.7317 56.0292 30.0527 53.3204C30.3416 50.8808 27.7452 44.8428 28.0149 40.0252C30.4469 42.6514 33.4142 45.3834 34.9223 44.9775C37.4495 44.2967 43.6397 36.9846 44.8836 35.491C45.0117 35.3361 45.0172 35.1128 44.8957 34.9519Z" fill="#33C27D"/>
<path d="M28.6011 45.6445C26.6645 44.1145 22.9865 40.2746 23.983 33.7083C23.983 33.7083 24.3601 34.2892 25.0012 35.2987C25.7159 36.4126 26.7603 38.0554 28.0033 40.0145C28.0033 40.0145 28.0033 40.019 28.0078 40.019V40.0235C27.9035 41.8086 28.2024 43.7676 28.6011 45.6445Z" fill="#1EAF69"/>
</g>
</svg>
